<svg xmlns="http://www.w3.org/2000/svg" width="612" height="596.876" viewBox="0 0 612 596.876">
  <defs>
    <style>
      .cls-1 {
        fill: #f5f5f5;
      }

      .cls-2 {
        fill: #e6e6e6;
      }

      .cls-3 {
        fill: #37474f;
      }

      .cls-4 {
        fill: #455a64;
      }

      .cls-5 {
        fill: #407bff;
      }

      .cls-23, .cls-6 {
        opacity: 0.6;
      }

      .cls-11, .cls-14, .cls-23, .cls-30, .cls-7 {
        fill: #fff;
      }

      .cls-8 {
        fill: #e0e0e0;
      }

      .cls-9 {
        fill: #ebebeb;
      }

      .cls-10 {
        opacity: 0.15;
      }

      .cls-11, .cls-13, .cls-26 {
        opacity: 0.2;
      }

      .cls-12 {
        fill: #f0f0f0;
      }

      .cls-14, .cls-15, .cls-17 {
        opacity: 0.3;
      }

      .cls-16 {
        opacity: 0.39;
      }

      .cls-18 {
        opacity: 0.5;
      }

      .cls-19 {
        fill: #263238;
      }

      .cls-20 {
        fill: none;
      }

      .cls-21, .cls-25 {
        opacity: 0.4;
      }

      .cls-22 {
        fill: #ffc3c2;
      }

      .cls-24 {
        fill: #ffa8a7;
      }

      .cls-27 {
        fill: #ff9192;
      }

      .cls-28 {
        fill: #f28f8f;
      }

      .cls-29 {
        fill: #9c5756;
      }

      .cls-30 {
        opacity: 0.1;
      }

      .cls-31 {
        fill: #803837;
      }
    </style>
  </defs>
  <g id="Design_team-amico" data-name="Design team-amico" transform="translate(-20.5 -24.135)">
    <g id="freepik--Floor--inject-191" transform="translate(20.5 277.436)">
      <path id="Path_1406" data-name="Path 1406" class="cls-1" d="M526.168,267.118c-116.21-67.037-304.019-67.037-419.467,0S-8.155,443,108.016,510.093s304.019,67.1,419.48,0S642.378,334.22,526.168,267.118Z" transform="translate(-20.5 -216.84)"/>
    </g>
    <g id="freepik--Shadows--inject-191" transform="translate(40.287 340.542)">
      <path id="Path_1407" data-name="Path 1407" class="cls-2" d="M443.626,355.518c10.41-6.007,27.235-6.007,37.58,0s10.292,15.773-.118,21.767-27.235,6.007-37.58,0S433.216,361.512,443.626,355.518Z" transform="translate(90.298 -237.756)"/>
      <path id="Path_1408" data-name="Path 1408" class="cls-2" d="M56.409,422.325c27.6-15.971,72.374-15.971,99.9,0s27.341,41.865-.315,57.836-72.374,15.971-99.9,0S28.74,438.3,56.409,422.325Z" transform="translate(-35.553 -219.099)"/>
      <path id="Path_1409" data-name="Path 1409" class="cls-2" d="M170.141,319.213c-26.066-15.064-68.207-15.064-94.114,0s-25.763,39.433.315,54.51,68.207,15.05,94.115,0S196.219,334.316,170.141,319.213Z" transform="translate(-28.908 -251.308)"/>
      <path id="Path_1410" data-name="Path 1410" class="cls-2" d="M185.355,405.031c29.273-16.891,76.58-16.891,105.655,0s28.918,44.31-.342,61.214-76.58,16.891-105.655,0S156.083,421.921,185.355,405.031Z" transform="translate(4.617 -224.754)"/>
      <path id="Path_1411" data-name="Path 1411" class="cls-2" d="M172.44,274.5l324.2,185.876,16.628-9.687L188.989,264.85Z" transform="translate(7.49 -264.85)"/>
    </g>
    <g id="freepik--light-bulb--inject-191" transform="translate(64.766 40.433)">
      <g id="freepik--freepik--light-bulb--inject-77--inject-191">
        <g id="freepik--freepik--Idea--inject-77--inject-191">
          <g id="freepik--freepik--light--inject-77--inject-191" transform="translate(15.891 15.654)">
            <path id="Path_1412" data-name="Path 1412" class="cls-3" d="M94.957,85.218a2.146,2.146,0,1,1,0-.053Z" transform="translate(-59.633 -37.653)"/>
            <path id="Path_1413" data-name="Path 1413" class="cls-4" d="M87.84,89.514c-3-.368-3.943-2.629-2.129-5.047a10.437,10.437,0,0,1,8.715-3.68c3,.368,3.943,2.629,2.129,5.021A10.516,10.516,0,0,1,87.84,89.514Z" transform="translate(-60.442 -38.281)"/>
            <path id="Path_1414" data-name="Path 1414" class="cls-3" d="M87.344,88.648c-3.089-.394-4.075-2.708-2.208-5.258a10.831,10.831,0,0,1,8.991-3.825c3.089.394,4.075,2.708,2.182,5.258a10.7,10.7,0,0,1-8.965,3.825Z" transform="translate(-60.63 -38.664)"/>
            <path id="Path_1415" data-name="Path 1415" class="cls-4" d="M86.833,87.7c-3.181-.394-4.193-2.773-2.221-5.258a11.068,11.068,0,0,1,9.2-3.943c3.181.381,4.206,2.773,2.287,5.337A11.107,11.107,0,0,1,86.833,87.7Z" transform="translate(-60.815 -39.001)"/>
            <path id="Path_1416" data-name="Path 1416" class="cls-3" d="M86.278,86.753c-3.273-.394-4.311-2.866-2.327-5.494A11.436,11.436,0,0,1,93.533,77.2c3.273.408,4.325,2.866,2.327,5.508a11.436,11.436,0,0,1-9.582,4.048Z" transform="translate(-61.023 -39.411)"/>
            <path id="Path_1417" data-name="Path 1417" class="cls-4" d="M85.74,85.734c-3.4-.447-4.417-2.918-2.392-5.626a11.685,11.685,0,0,1,9.753-4.1c3.339.394,4.417,2.918,2.379,5.613A11.646,11.646,0,0,1,85.74,85.734Z" transform="translate(-61.222 -39.785)"/>
            <path id="Path_1418" data-name="Path 1418" class="cls-5" d="M77.746,49.951a18.77,18.77,0,0,0-10,24.58v.079c5.8,13.736,18.087,11.212,20.519,16.733a3.234,3.234,0,0,0,2.787,1.7,10.134,10.134,0,0,0,8.439-3.575,3.26,3.26,0,0,0,.7-3.155h0c-2.366-5.534,8-12.632,2.169-26.381a18.77,18.77,0,0,0-24.606-10Z" transform="translate(-66.267 -48.443)"/>
            <g id="Group_92" data-name="Group 92" class="cls-6">
              <path id="Path_1419" data-name="Path 1419" class="cls-7" d="M77.746,49.951a18.77,18.77,0,0,0-10,24.58v.079c5.8,13.736,18.087,11.212,20.519,16.733a3.234,3.234,0,0,0,2.787,1.7,10.134,10.134,0,0,0,8.439-3.575,3.26,3.26,0,0,0,.7-3.155h0c-2.366-5.534,8-12.632,2.169-26.381a18.77,18.77,0,0,0-24.606-10Z" transform="translate(-66.267 -48.443)"/>
            </g>
            <path id="Path_1420" data-name="Path 1420" class="cls-5" d="M86.2,82.989c-2.143-.3-2.892-1.893-1.6-3.615a7.611,7.611,0,0,1,6.362-2.629c2.143.3,2.866,1.906,1.551,3.654A7.571,7.571,0,0,1,86.2,82.989Z" transform="translate(-60.704 -39.551)"/>
            <path id="Path_1421" data-name="Path 1421" class="cls-7" d="M93.341,82.9a.631.631,0,0,1-.815-.315,45.612,45.612,0,0,1-2.971-10.4,22.541,22.541,0,0,1-.276-3.115,9.475,9.475,0,0,1-1.827-.105,10.963,10.963,0,0,1-3.142-1,11.409,11.409,0,0,1-1.472,2.9,9.9,9.9,0,0,1-1.2,1.314,27.018,27.018,0,0,1,2.037,2.379,45.309,45.309,0,0,1,5.4,9.385.631.631,0,0,1-.355.828.657.657,0,0,1-.828-.368,44.56,44.56,0,0,0-5.258-9.07,20.454,20.454,0,0,0-2.024-2.366,4.009,4.009,0,0,1-3.694.421,2.037,2.037,0,0,1-1.314-2.313,1.7,1.7,0,0,1,1.314-1.314,4.837,4.837,0,0,1,3.733,1.59,6.859,6.859,0,0,0,1.078-1.236,9.806,9.806,0,0,0,1.406-2.826,4.666,4.666,0,0,1-2.261-2.931,1.8,1.8,0,0,1,3.155-1.314,4.614,4.614,0,0,1,.539,3.667,10.108,10.108,0,0,0,3,.96,7.61,7.61,0,0,0,1.643,0,4.877,4.877,0,0,1,1.459-3.786,1.709,1.709,0,0,1,1.893,0,2.024,2.024,0,0,1,.776,2.524,4.022,4.022,0,0,1-2.865,2.366,22.347,22.347,0,0,0,.289,3.1,44.691,44.691,0,0,0,2.892,10.082.657.657,0,0,1-.315.854ZM77.108,71.066a.447.447,0,0,0-.237.355c-.118.513.394.8.552.868a2.511,2.511,0,0,0,2.143-.184A3.6,3.6,0,0,0,77.2,71.027ZM90.594,67.5a2.629,2.629,0,0,0,1.617-1.433c0-.158.223-.723-.237-1a.407.407,0,0,0-.5,0C91.08,65.283,90.7,66.084,90.594,67.5Zm-8.058-3.746a.434.434,0,0,0-.315.513h0a3.076,3.076,0,0,0,1.314,1.735,3.141,3.141,0,0,0-.368-2.116.447.447,0,0,0-.591-.145Z" transform="translate(-63.341 -44.045)"/>
          </g>
          <path id="Path_1422" data-name="Path 1422" class="cls-8" d="M74.006,46.486a.92.92,0,0,1-.276.184,1.236,1.236,0,0,1-1.617-.644l-2.537-5.889a1.209,1.209,0,0,1,.591-1.6h0a1.236,1.236,0,0,1,1.617.657l2.537,5.876A1.314,1.314,0,0,1,74.006,46.486Z" transform="translate(-49.369 -35.936)"/>
          <path id="Path_1423" data-name="Path 1423" class="cls-8" d="M66.167,52.681a1.222,1.222,0,0,1-1.485,0l-5.139-3.812A1.236,1.236,0,0,1,61,46.884L66.141,50.7a1.236,1.236,0,0,1,.25,1.722A.763.763,0,0,1,66.167,52.681Z" transform="translate(-52.624 -33.338)"/>
          <path id="Path_1424" data-name="Path 1424" class="cls-8" d="M62.528,61.939a1.236,1.236,0,0,1-.92.263l-6.349-.736a1.222,1.222,0,0,1-1.078-1.314A1.314,1.314,0,0,1,55.5,59.06l6.362.736a1.222,1.222,0,0,1,1.078,1.314,1.2,1.2,0,0,1-.407.828Z" transform="translate(-54.177 -29.451)"/>
          <path id="Path_1425" data-name="Path 1425" class="cls-8" d="M63.962,72.426a.762.762,0,0,1-.237.223L57.85,75.2a1.209,1.209,0,0,1-1.6-.6h0a1.222,1.222,0,0,1,.6-1.617h0L62.7,70.349a1.236,1.236,0,0,1,1.314,2.09Z" transform="translate(-53.561 -25.952)"/>
          <path id="Path_1426" data-name="Path 1426" class="cls-8" d="M106.619,53.991a1.314,1.314,0,0,1-.237.223L100.415,56.7a1.222,1.222,0,1,1-.96-2.248l5.876-2.55a1.222,1.222,0,0,1,1.59.7,1.236,1.236,0,0,1-.342,1.393Z" transform="translate(-40.182 -31.729)"/>
          <path id="Path_1427" data-name="Path 1427" class="cls-8" d="M94.044,48.754A1.236,1.236,0,0,1,92.3,47.045l3.825-5.126a1.2,1.2,0,0,1,1.682-.263h0a1.222,1.222,0,0,1,.263,1.7h0l-3.825,5.139a.96.96,0,0,1-.2.263Z" transform="translate(-42.264 -34.997)"/>
          <path id="Path_1428" data-name="Path 1428" class="cls-8" d="M84.049,45.033a1.237,1.237,0,0,1-2-1.1l.8-6.309a1.224,1.224,0,0,1,2.432.276l-.749,6.362a1.17,1.17,0,0,1-.486.776Z" transform="translate(-45.413 -36.534)"/>
        </g>
      </g>
    </g>
    <g id="freepik--Plant--inject-191" transform="translate(567.534 336.729)">
      <path id="Path_1429" data-name="Path 1429" class="cls-7" d="M436.88,328.13l25.2.736,25.211-.736c1.078,17.022-2.248,34.373-6.822,42.838h0a11.4,11.4,0,0,1-4.982,5.074c-7.44,4.3-19.454,4.3-26.841,0a11.173,11.173,0,0,1-4.995-5.258C439.075,362.319,435.789,345.047,436.88,328.13Z" transform="translate(-436.67 -241.138)"/>
      <path id="Path_1430" data-name="Path 1430" class="cls-9" d="M444.272,321.3c-9.885,5.7-9.937,14.945-.118,20.65s25.763,5.691,35.648,0,9.924-14.945.105-20.65S454.143,315.6,444.272,321.3Z" transform="translate(-436.622 -244.63)"/>
      <path id="Path_1431" data-name="Path 1431" class="cls-8" d="M446.85,322.8c-7.7,4.456-7.755,11.659-.092,16.115s20.1,4.443,27.8,0,7.755-11.659.092-16.115S454.552,318.355,446.85,322.8Z" transform="translate(-435.296 -243.864)"/>
      <g id="Group_93" data-name="Group 93" class="cls-10" transform="translate(5.746 75.597)">
        <path id="Path_1432" data-name="Path 1432" d="M446.85,322.8c-7.7,4.456-7.755,11.659-.092,16.115s20.1,4.443,27.8,0,7.755-11.659.092-16.115S454.552,318.355,446.85,322.8Z" transform="translate(-441.041 -319.461)"/>
      </g>
      <path id="Path_1433" data-name="Path 1433" class="cls-4" d="M473.551,297.362c4.1-5.1,8.859-9.661,12.619-15.011,2.563-3.654,4.706-8.123,3.628-12.448a11.12,11.12,0,0,0-8.82-7.768,16.877,16.877,0,0,0-11.83,2.629,36.251,36.251,0,0,0-8.951,8.518A88.948,88.948,0,0,0,441.465,336.8c.25,2.629.683,5.258,2.34,7.3a7.269,7.269,0,0,0,7.532,2.3c6.861-2.037,5.955-11.3,7.072-16.759a76.858,76.858,0,0,1,7.887-21.412,75.315,75.315,0,0,1,7.256-10.857Z" transform="translate(-435.287 -261.949)"/>
      <path id="Path_1434" data-name="Path 1434" class="cls-11" d="M473.551,297.362c4.1-5.1,8.859-9.661,12.619-15.011,2.563-3.654,4.706-8.123,3.628-12.448a11.12,11.12,0,0,0-8.82-7.768,16.877,16.877,0,0,0-11.83,2.629,36.251,36.251,0,0,0-8.951,8.518A88.948,88.948,0,0,0,441.465,336.8c.25,2.629.683,5.258,2.34,7.3a7.269,7.269,0,0,0,7.532,2.3c6.861-2.037,5.955-11.3,7.072-16.759a76.858,76.858,0,0,1,7.887-21.412,75.315,75.315,0,0,1,7.256-10.857Z" transform="translate(-435.287 -261.949)"/>
      <path id="Path_1435" data-name="Path 1435" class="cls-12" d="M448.71,338.133a.6.6,0,0,0,.486-.565c.486-11.028,4.062-48.635,30-69.994a.6.6,0,0,0,.079-.841.591.591,0,0,0-.841-.079c-26.289,21.662-29.943,59.715-30.43,70.862a.592.592,0,0,0,.578.618Z" transform="translate(-433.107 -260.513)"/>
      <path id="Path_1436" data-name="Path 1436" class="cls-4" d="M445.848,332.151c.789,4.325,4.509,9.688,8.426,11.672a23.66,23.66,0,0,0,12.737,2.143,56,56,0,0,0,12.934-3.1c2.077-.7,4.39-1.643,4.6-4.219a4.574,4.574,0,0,0-1.459-3.615,14.55,14.55,0,0,0-1.315-1.157,1.314,1.314,0,0,1,.71-2.392,29.252,29.252,0,0,0,3.694-.46,16.051,16.051,0,0,0,7.729-3.5,12.816,12.816,0,0,0,3.575-5.258c.631-1.722.8-3.943-.513-5.192a5.665,5.665,0,0,0-2.865-1.249q-1.38-.3-2.76-.513a1.222,1.222,0,0,1-.289-2.353L495,311.343a7.4,7.4,0,0,0,2.971-1.853,6.427,6.427,0,0,0,.749-5.376c-.473-2.458-1.315-4.811-1.893-7.243a15.51,15.51,0,0,1-.263-7.4,62.318,62.318,0,0,0-21.9,1.459,15.694,15.694,0,0,0-5.981,2.629c-2.432,1.958-3.076,4.877-2.813,8.058a.565.565,0,0,1-1.065.3l-2.5-4.614a2.957,2.957,0,0,0-3.943-1.236,17.968,17.968,0,0,0-5.7,4.482,9.884,9.884,0,0,0-2.445,7.321,64.546,64.546,0,0,0,1.814,10.739.986.986,0,0,1-1.551,1.038l-.118-.079a3.338,3.338,0,0,0-2.353-.684c-2.208.276-2.773,2.511-2.918,4.417a36.658,36.658,0,0,0,.762,8.846Z" transform="translate(-434.031 -253.414)"/>
      <path id="Path_1437" data-name="Path 1437" class="cls-13" d="M445.848,332.151c.789,4.325,4.509,9.688,8.426,11.672a23.66,23.66,0,0,0,12.737,2.143,56,56,0,0,0,12.934-3.1c2.077-.7,4.39-1.643,4.6-4.219a4.574,4.574,0,0,0-1.459-3.615,14.55,14.55,0,0,0-1.315-1.157,1.314,1.314,0,0,1,.71-2.392,29.252,29.252,0,0,0,3.694-.46,16.051,16.051,0,0,0,7.729-3.5,12.816,12.816,0,0,0,3.575-5.258c.631-1.722.8-3.943-.513-5.192a5.665,5.665,0,0,0-2.865-1.249q-1.38-.3-2.76-.513a1.222,1.222,0,0,1-.289-2.353L495,311.343a7.4,7.4,0,0,0,2.971-1.853,6.427,6.427,0,0,0,.749-5.376c-.473-2.458-1.315-4.811-1.893-7.243a15.51,15.51,0,0,1-.263-7.4,62.318,62.318,0,0,0-21.9,1.459,15.694,15.694,0,0,0-5.981,2.629c-2.432,1.958-3.076,4.877-2.813,8.058a.565.565,0,0,1-1.065.3l-2.5-4.614a2.957,2.957,0,0,0-3.943-1.236,17.968,17.968,0,0,0-5.7,4.482,9.884,9.884,0,0,0-2.445,7.321,64.546,64.546,0,0,0,1.814,10.739.986.986,0,0,1-1.551,1.038l-.118-.079a3.338,3.338,0,0,0-2.353-.684c-2.208.276-2.773,2.511-2.918,4.417a36.658,36.658,0,0,0,.762,8.846Z" transform="translate(-434.031 -253.414)"/>
      <path id="Path_1438" data-name="Path 1438" class="cls-11" d="M445.848,332.151c.789,4.325,4.509,9.688,8.426,11.672a23.66,23.66,0,0,0,12.737,2.143,56,56,0,0,0,12.934-3.1c2.077-.7,4.39-1.643,4.6-4.219a4.574,4.574,0,0,0-1.459-3.615,14.55,14.55,0,0,0-1.315-1.157,1.314,1.314,0,0,1,.71-2.392,29.252,29.252,0,0,0,3.694-.46,16.051,16.051,0,0,0,7.729-3.5,12.816,12.816,0,0,0,3.575-5.258c.631-1.722.8-3.943-.513-5.192a5.665,5.665,0,0,0-2.865-1.249q-1.38-.3-2.76-.513a1.222,1.222,0,0,1-.289-2.353L495,311.343a7.4,7.4,0,0,0,2.971-1.853,6.427,6.427,0,0,0,.749-5.376c-.473-2.458-1.315-4.811-1.893-7.243a15.51,15.51,0,0,1-.263-7.4,62.318,62.318,0,0,0-21.9,1.459,15.694,15.694,0,0,0-5.981,2.629c-2.432,1.958-3.076,4.877-2.813,8.058a.565.565,0,0,1-1.065.3l-2.5-4.614a2.957,2.957,0,0,0-3.943-1.236,17.968,17.968,0,0,0-5.7,4.482,9.884,9.884,0,0,0-2.445,7.321,64.546,64.546,0,0,0,1.814,10.739.986.986,0,0,1-1.551,1.038l-.118-.079a3.338,3.338,0,0,0-2.353-.684c-2.208.276-2.773,2.511-2.918,4.417a36.658,36.658,0,0,0,.762,8.846Z" transform="translate(-434.031 -253.414)"/>
      <path id="Path_1439" data-name="Path 1439" class="cls-12" d="M454.5,342.42a87.69,87.69,0,0,1,5.889-17.088.579.579,0,0,1,.21-.447c.132-.3.263-.591.408-.894a54.907,54.907,0,0,0-5.849-19.533.618.618,0,0,1,.224-.828.6.6,0,0,1,.815.223,55.625,55.625,0,0,1,5.757,18.166c4.982-9.99,12.947-21.688,25.224-30.232a.592.592,0,0,1,.841.145.6.6,0,0,1-.158.841C475.192,301.58,467.2,313.8,462.35,323.939a36.934,36.934,0,0,1,20.873-2.826.618.618,0,0,1,.486.71.6.6,0,0,1-.473.473H483c-.118,0-11.58-2.1-21.491,3.444a87.189,87.189,0,0,0-5.836,16.9.605.605,0,0,1-.473.473.486.486,0,0,1-.237,0A.592.592,0,0,1,454.5,342.42Z" transform="translate(-431.066 -252.602)"/>
    </g>
    <g id="freepik--Screen--inject-191" transform="translate(222.623 24.135)">
      <path id="Path_1440" data-name="Path 1440" class="cls-5" d="M492.612,463.136l.434-243.449a18.731,18.731,0,0,0-8.5-14.748L182.56,30.985c-2.34-1.314-4.469-1.5-6.02-.631l8.938-5.166h0c1.551-.986,3.759-.907,6.2.5L493.651,199.576a18.757,18.757,0,0,1,8.518,14.748l-.355,243.528a6.165,6.165,0,0,1-2.274,5.324h0l-.473.276-8.82,5.139C491.679,467.684,492.612,465.8,492.612,463.136Z" transform="translate(-173.556 -24.012)"/>
      <path id="Path_1441" data-name="Path 1441" class="cls-14" d="M185.478,25.158h0c1.551-.986,3.759-.907,6.2.5L493.651,199.585a17.9,17.9,0,0,1,6.572,7.269l-9.135,5.258a17.81,17.81,0,0,0-6.507-7.256L182.56,30.994c-2.34-1.314-4.469-1.5-6.02-.631Z" transform="translate(-173.556 -24.021)"/>
      <path id="Path_1442" data-name="Path 1442" class="cls-11" d="M427.122,170.687l-.355,243.528a6.165,6.165,0,0,1-2.274,5.324h0l-.473.276-8.82,5.14c1.512-.907,2.445-2.787,2.458-5.455L418,176.05a16.523,16.523,0,0,0-2-7.492l9.135-5.258a16.666,16.666,0,0,1,1.985,7.387Z" transform="translate(-98.51 19.625)"/>
      <path id="Path_1443" data-name="Path 1443" class="cls-5" d="M493.747,225.389l-.421,232.46c0,2.629-.946,4.548-2.458,5.455l-.131.079h-.066c-1.538.8-3.615.657-5.915-.67L182.788,288.851A18.81,18.81,0,0,1,174.27,274.1l.408-232.762Z" transform="translate(-174.27 -18.725)"/>
      <path id="Path_1444" data-name="Path 1444" class="cls-13" d="M493.747,225.389l-.421,232.46c0,2.629-.946,4.548-2.458,5.455l-.131.079h-.066c-1.538.8-3.615.657-5.915-.67L182.788,288.851A18.81,18.81,0,0,1,174.27,274.1l.408-232.762Z" transform="translate(-174.27 -18.725)"/>
      <path id="Path_1445" data-name="Path 1445" class="cls-7" d="M203.16,270.358l.342-193.2L463.223,226.481l-.342,192.908Z" transform="translate(-165.186 -7.462)"/>
      <path id="Path_1446" data-name="Path 1446" class="cls-4" d="M284.97,235.6l.145-99.872,115.159,66.2-.158,99.753Z" transform="translate(-139.461 10.956)"/>
      <path id="Path_1447" data-name="Path 1447" class="cls-5" d="M174.6,34.582c0-2.629.946-4.535,2.458-5.442h0c1.551-.868,3.68-.723,6.02.631L485.155,203.593a18.731,18.731,0,0,1,8.5,14.814v11.055L174.59,45.439Z" transform="translate(-174.169 -22.732)"/>
      <path id="Path_1448" data-name="Path 1448" class="cls-15" d="M174.6,34.582c0-2.629.946-4.535,2.458-5.442h0c1.551-.868,3.68-.723,6.02.631L485.155,203.593a18.731,18.731,0,0,1,8.5,14.814v11.055L174.59,45.439Z" transform="translate(-174.169 -22.732)"/>
      <g id="Group_94" data-name="Group 94" class="cls-16" transform="translate(7.992 15.949)">
        <path id="Path_1449" data-name="Path 1449" class="cls-7" d="M192.357,42.176c-1.314-.736-2.327-.145-2.327,1.314a5.061,5.061,0,0,0,2.313,4.022c1.314.749,2.34.145,2.34-1.314a5.126,5.126,0,0,0-2.327-4.022Z" transform="translate(-177.306 -34.511)"/>
        <path id="Path_1450" data-name="Path 1450" class="cls-7" d="M187.557,39.388c-1.314-.749-2.327-.158-2.327,1.314a5.1,5.1,0,0,0,2.327,4.035c1.314.736,2.34.145,2.34-1.314a5.113,5.113,0,0,0-2.34-4.035Z" transform="translate(-178.815 -35.391)"/>
        <path id="Path_1451" data-name="Path 1451" class="cls-7" d="M182.677,36.586c-1.314-.736-2.327-.145-2.327,1.314a5.061,5.061,0,0,0,2.313,4.022c1.314.749,2.34.158,2.34-1.314A5.153,5.153,0,0,0,182.677,36.586Z" transform="translate(-180.35 -36.269)"/>
      </g>
      <path id="Path_1452" data-name="Path 1452" class="cls-7" d="M191.089,102.5l-.039,12.132.039-12.132Z" transform="translate(-168.994 0.507)"/>
      <path id="Path_1453" data-name="Path 1453" class="cls-7" d="M193.565,116.739l-10.555-6.1h0l10.555,6.1-.026,12.132h0Z" transform="translate(-171.522 3.066)"/>
      <rect id="Rectangle_73" data-name="Rectangle 73" class="cls-7" height="12.185" transform="translate(11.439 130.486) rotate(-60)"/>
      <rect id="Rectangle_74" data-name="Rectangle 74" class="cls-7" height="12.185" transform="translate(11.271 191.553) rotate(-60)"/>
      <path id="Path_1454" data-name="Path 1454" class="cls-7" d="M183.09,81.55l10.568,6.1-10.568-6.1Z" transform="translate(-171.497 -6.081)"/>
      <path id="Path_1455" data-name="Path 1455" class="cls-7" d="M186.48,87.05l6.1,3.523-.039,12.132.039-12.132Z" transform="translate(-170.431 -4.352)"/>
      <path id="Path_1456" data-name="Path 1456" class="cls-7" d="M183.06,94.32l10.555,6.1-10.555-6.1Z" transform="translate(-171.506 -2.066)"/>
      <path id="Path_1457" data-name="Path 1457" class="cls-7" d="M183.02,107.09l10.555,6.1-10.555-6.1Z" transform="translate(-171.519 1.95)"/>
      <path id="Path_1458" data-name="Path 1458" class="cls-7" d="M186.2,184.59l6.1,3.523-.039,12.132h0l.039-12.132Z" transform="translate(-170.519 26.32)"/>
      <rect id="Rectangle_75" data-name="Rectangle 75" class="cls-7" height="12.185" transform="translate(11.372 157.968) rotate(-60)"/>
      <rect id="Rectangle_76" data-name="Rectangle 76" class="cls-7" height="12.185" transform="translate(11.325 174.754) rotate(-60)"/>
      <path id="Path_1459" data-name="Path 1459" class="cls-7" d="M183.059,97.87l10.555,6.086-.039,12.132-10.555-6.1Z" transform="translate(-171.519 -0.949)"/>
      <path id="Path_1460" data-name="Path 1460" class="cls-7" d="M193.545,128.871l-10.555-6.1.026-12.132,10.555,6.1Z" transform="translate(-171.528 3.066)"/>
      <path id="Path_1461" data-name="Path 1461" class="cls-7" d="M182.889,157.09l10.555,6.1-.039,12.132-10.555-6.1Z" transform="translate(-171.572 17.672)"/>
      <path id="Path_1462" data-name="Path 1462" class="cls-7" d="M193.375,188.078l-10.555-6.086.026-12.132,10.568,6.1Z" transform="translate(-171.581 21.688)"/>
      <path id="Path_1463" data-name="Path 1463" class="cls-7" d="M182.929,144.32l10.555,6.086-.039,12.132-10.555-6.1Z" transform="translate(-171.559 13.657)"/>
      <path id="Path_1464" data-name="Path 1464" class="cls-5" d="M180.15,226.958l17.364,10.016.25-87.1L180.4,139.85Zm3.536-47.662,10.516,6.1h0v12.132l-10.516-6.1Zm10.621-15.353-10.516-6.1V145.726h0l10.516,6.086h0Zm0,16.8-10.516-6.1V162.511h0l10.516,6.1h0Zm-.092,33.571h0l-10.516-6.1V196.1l4.456,2.629,6.1,3.523v12.132ZM183.62,225V212.868l10.516,6.1V231.1Z" transform="translate(-172.421 12.251)"/>
      <path id="Path_1465" data-name="Path 1465" class="cls-5" d="M180.36,154.958l17.351,10.029.25-87.108L180.6,67.85Zm14.157-63L184,85.858h0V73.726l10.516,6.1Zm0,16.786L184,102.643h0V90.511l4.469,2.629,6.1,3.523Zm0,16.785L184,119.442h0V107.31l10.516,6.086h0Zm0,16.8h0L184,136.228V124.1h0l10.516,6.1Zm0,16.785L184,153.013V140.881h0l10.516,6.1h0Z" transform="translate(-172.355 -10.389)"/>
      <path id="Path_1466" data-name="Path 1466" class="cls-4" d="M180.15,226.958l17.364,10.016.25-87.1L180.4,139.85Zm3.536-47.662,10.516,6.1h0v12.132l-10.516-6.1Zm10.621-15.353-10.516-6.1V145.726h0l10.516,6.086h0Zm0,16.8-10.516-6.1V162.511h0l10.516,6.1h0Zm-.092,33.571h0l-10.516-6.1V196.1l4.456,2.629,6.1,3.523v12.132ZM183.62,225V212.868l10.516,6.1V231.1Z" transform="translate(-172.421 12.251)"/>
      <path id="Path_1467" data-name="Path 1467" class="cls-4" d="M180.36,154.958l17.351,10.029.25-87.108L180.6,67.85Zm14.157-63L184,85.858h0V73.726l10.516,6.1Zm0,16.786L184,102.643h0V90.511l4.469,2.629,6.1,3.523Zm0,16.785L184,119.442h0V107.31l10.516,6.086h0Zm0,16.8h0L184,136.228V124.1h0l10.516,6.1Zm0,16.785L184,153.013V140.881h0l10.516,6.1h0Z" transform="translate(-172.355 -10.389)"/>
      <path id="Path_1468" data-name="Path 1468" class="cls-7" d="M183.06,97.222l.026-12.132,4.469,2.576,6.1,3.523-.039,12.132-10.555-6.1Z" transform="translate(-171.506 -4.968)"/>
      <path id="Path_1469" data-name="Path 1469" class="cls-7" d="M180.54,69.466l.026-6.756L197.93,72.726,197.9,79.5,180.54,69.466Z" transform="translate(-172.298 -12.005)"/>
      <path id="Path_1470" data-name="Path 1470" class="cls-7" d="M183.09,84.452l.039-12.132,10.555,6.1-.026,12.132-10.568-6.1Z" transform="translate(-171.497 -8.984)"/>
      <path id="Path_1471" data-name="Path 1471" class="cls-7" d="M182.976,123.41h0l10.568,6.1h0l-.039,12.132-10.555-6.1Z" transform="translate(-171.541 7.082)"/>
      <path id="Path_1472" data-name="Path 1472" class="cls-7" d="M182.78,194.762l.039-12.132,4.456,2.576,6.1,3.523-.039,12.132h0Z" transform="translate(-171.594 25.703)"/>
      <path id="Path_1473" data-name="Path 1473" class="cls-7" d="M193.331,201.5l-.026,12.132-10.555-6.1.026-12.132Z" transform="translate(-171.603 29.719)"/>
      <path id="Path_1474" data-name="Path 1474" class="cls-3" d="M373.646,277.168l-.026,5.534L284.71,230.624l.026-5.534Z" transform="translate(-139.542 39.055)"/>
      <ellipse id="Ellipse_13" data-name="Ellipse 13" class="cls-8" cx="8.689" cy="14.998" rx="8.689" ry="14.998" transform="matrix(0.865, -0.502, 0.502, 0.865, 51.45, 241.53)"/>
      <path id="Path_1475" data-name="Path 1475" class="cls-8" d="M227.553,181.885c5.876,3.391,10.634,11.62,10.608,18.4s-4.8,9.477-10.673,6.086-10.634-11.62-10.608-18.4S221.612,178.546,227.553,181.885Z" transform="translate(-160.871 25.016)"/>
      <path id="Path_1476" data-name="Path 1476" class="cls-8" d="M249.553,194.59c5.876,3.391,10.634,11.62,10.608,18.4s-4.8,9.477-10.673,6.086-10.634-11.62-10.608-18.4S243.612,191.2,249.553,194.59Z" transform="translate(-153.953 29.004)"/>
      <path id="Path_1477" data-name="Path 1477" class="cls-8" d="M271.436,230.87c5.876,3.391,10.621,11.62,10.608,18.4s-4.8,9.477-10.686,6.086-10.621-11.62-10.608-18.4S265.548,227.479,271.436,230.87Z" transform="translate(-147.077 40.412)"/>
      <ellipse id="Ellipse_14" data-name="Ellipse 14" class="cls-8" cx="8.689" cy="14.998" rx="8.689" ry="14.998" transform="matrix(0.865, -0.502, 0.502, 0.865, 109.364, 243.932)"/>
      <ellipse id="Ellipse_15" data-name="Ellipse 15" class="cls-8" cx="8.689" cy="14.998" rx="8.689" ry="14.998" transform="matrix(0.865, -0.502, 0.502, 0.865, 80.358, 258.234)"/>
      <path id="Path_1478" data-name="Path 1478" class="cls-5" d="M470.462,145.94,356.591,80.165a2.287,2.287,0,0,0-2.314-.223h0l-8.518,6.1h0a2.313,2.313,0,0,1,2.287.237l113.936,65.788a7.177,7.177,0,0,1,3.181,5.573l-.447,101.725a2.274,2.274,0,0,1-.907,2.051h0l8.623-6.178h0a2.366,2.366,0,0,0,.828-2l.447-101.725a7.177,7.177,0,0,0-3.247-5.573Z" transform="translate(-120.345 -6.654)"/>
      <path id="Path_1479" data-name="Path 1479" class="cls-4" d="M465.073,257.95l.447-101.778a7.177,7.177,0,0,0-3.247-5.626L348.337,84.824a2.313,2.313,0,0,0-2.287-.237,2.261,2.261,0,0,0-.973,2.116l-.447,101.725a7.177,7.177,0,0,0,3.247,5.626l113.936,65.722a2.222,2.222,0,0,0,2.353.184,2.274,2.274,0,0,0,.907-2.011Z" transform="translate(-120.701 -5.188)"/>
      <g id="Group_95" data-name="Group 95" class="cls-17" transform="translate(231.159 148.092)">
        <path id="Path_1480" data-name="Path 1480" d="M360.659,142.86l-.026,12.067-10.5-6.06.039-12.067Z" transform="translate(-350.13 -136.8)"/>
      </g>
      <g id="Group_96" data-name="Group 96" class="cls-17" transform="translate(231.159 170.661)">
        <path id="Path_1481" data-name="Path 1481" d="M360.659,160.043l-.026,12.053-10.5-6.06.039-12.067Z" transform="translate(-350.13 -153.97)"/>
      </g>
      <path id="Path_1482" data-name="Path 1482" class="cls-7" d="M368.649,164.636l-.026,12.067-10.5-6.06.039-12.053Z" transform="translate(-116.459 18.144)"/>
      <g id="Group_97" data-name="Group 97" class="cls-18" transform="translate(247.879 161.421)">
        <path id="Path_1483" data-name="Path 1483" class="cls-7" d="M425.326,183l-.013,4.706L362.85,151.646l.013-4.706Z" transform="translate(-362.85 -146.94)"/>
      </g>
      <g id="Group_98" data-name="Group 98" class="cls-17" transform="translate(231.211 129.598)">
        <path id="Path_1484" data-name="Path 1484" d="M360.7,128.79l-.026,12.053-10.5-6.06.039-12.053Z" transform="translate(-350.17 -122.73)"/>
      </g>
      <g id="Group_99" data-name="Group 99" class="cls-18" transform="translate(247.984 124.406)">
        <path id="Path_1485" data-name="Path 1485" class="cls-7" d="M425.406,154.848l-.013,4.706L362.93,123.5l.013-4.719Z" transform="translate(-362.93 -118.78)"/>
      </g>
      <g id="Group_100" data-name="Group 100" class="cls-18" transform="translate(247.931 142.926)">
        <path id="Path_1486" data-name="Path 1486" class="cls-7" d="M425.366,168.925l-.013,4.706L362.89,137.576l.013-4.706Z" transform="translate(-362.89 -132.87)"/>
      </g>
      <g id="Group_101" data-name="Group 101" class="cls-17" transform="translate(231.264 111.09)">
        <path id="Path_1487" data-name="Path 1487" d="M360.739,114.71l-.026,12.067-10.5-6.06.039-12.067Z" transform="translate(-350.21 -108.65)"/>
      </g>
      <path id="Path_1488" data-name="Path 1488" class="cls-7" d="M436.266,158.308l-.039,12.067L414.67,157.927l.039-12.067Z" transform="translate(-98.677 14.141)"/>
      <path id="Path_1489" data-name="Path 1489" class="cls-7" d="M436.186,186.468l-.039,12.053L414.59,186.073l.039-12.053Z" transform="translate(-98.702 22.996)"/>
      <path id="Path_1490" data-name="Path 1490" class="cls-7" d="M436.226,172.388l-.039,12.067L414.63,172.007l.039-12.067Z" transform="translate(-98.689 18.568)"/>
      <g id="Group_102" data-name="Group 102" class="cls-17" transform="translate(274.759 106.792)">
        <path id="Path_1491" data-name="Path 1491" d="M450.113,143.985a7.176,7.176,0,0,1,3.247,5.586v9.74L383.3,118.853V105.38Z" transform="translate(-383.3 -105.38)"/>
      </g>
      <path id="Path_1492" data-name="Path 1492" class="cls-7" d="M387.838,112.606,348.773,90.05l-.013,4.456,39.078,22.556Z" transform="translate(-119.402 -3.408)"/>
      <path id="Path_1493" data-name="Path 1493" class="cls-7" d="M426.79,133.08v1.262l7.874,4.548v-1.262Z" transform="translate(-94.866 10.122)"/>
      <path id="Path_1494" data-name="Path 1494" class="cls-7" d="M426.78,139.249l7.86,4.535.013-1.236L426.78,138Z" transform="translate(-94.869 11.669)"/>
      <path id="Path_1495" data-name="Path 1495" class="cls-7" d="M426.79,135.982l7.86,4.535.013-1.249-7.874-4.548Z" transform="translate(-94.866 10.638)"/>
      <path id="Path_1496" data-name="Path 1496" class="cls-7" d="M426.78,137.609l7.874,4.535v-1.236l-7.874-4.548Z" transform="translate(-94.869 11.154)"/>
      <path id="Path_1497" data-name="Path 1497" class="cls-3" d="M470.462,145.94,356.591,80.165a2.287,2.287,0,0,0-2.314-.223h0l-8.518,6.1h0a2.313,2.313,0,0,1,2.287.237l113.936,65.788a6.77,6.77,0,0,1,2.484,2.787l8.951-5.14a7.2,7.2,0,0,0-2.957-3.772Z" transform="translate(-120.345 -6.654)"/>
      <path id="Path_1498" data-name="Path 1498" class="cls-19" d="M436.142,138.109a6.429,6.429,0,0,1,.762,2.839l-.447,101.725a2.274,2.274,0,0,1-.907,2.051h0l8.623-6.178h0a2.366,2.366,0,0,0,.828-2l.447-101.725a5.627,5.627,0,0,0-.355-1.853Z" transform="translate(-92.111 10.088)"/>
      <path id="Path_1499" data-name="Path 1499" class="cls-5" d="M336.607,90.3,222.671,24.575a2.327,2.327,0,0,0-2.313-.237h0l-8.518,6.112h0a2.313,2.313,0,0,1,2.287.237L328.064,96.476a7.177,7.177,0,0,1,3.247,5.626l-.447,46.518a2.3,2.3,0,0,1-.894,2.051h0l8.623-6.178h0a2.379,2.379,0,0,0,.815-1.985l.447-46.531a7.177,7.177,0,0,0-3.247-5.678Z" transform="translate(-162.456 -24.135)"/>
      <path id="Path_1500" data-name="Path 1500" class="cls-4" d="M331.2,147.1l.447-46.518a7.177,7.177,0,0,0-3.247-5.626L214.467,29.234A2.313,2.313,0,0,0,212.18,29a2.287,2.287,0,0,0-.973,2.1l-.447,46.531a7.177,7.177,0,0,0,3.247,5.626L327.943,148.98a2.248,2.248,0,0,0,2.366.184,2.3,2.3,0,0,0,.894-2.064Z" transform="translate(-162.796 -22.669)"/>
      <g id="Group_103" data-name="Group 103" class="cls-18" transform="translate(55.417 35.51)">
        <path id="Path_1501" data-name="Path 1501" class="cls-7" d="M230.942,59.5l-.053,16.628L216.43,67.778l.039-16.628Z" transform="translate(-216.43 -51.15)"/>
      </g>
      <g id="Group_104" data-name="Group 104" class="cls-18" transform="translate(77.973 47.997)">
        <path id="Path_1502" data-name="Path 1502" class="cls-7" d="M248.1,69l-.053,16.641L233.59,77.291l.039-16.641Z" transform="translate(-233.59 -60.65)"/>
      </g>
      <g id="Group_105" data-name="Group 105" class="cls-18" transform="translate(100.516 60.484)">
        <path id="Path_1503" data-name="Path 1503" class="cls-7" d="M265.252,78.51l-.039,16.628L250.74,86.791l.053-16.641Z" transform="translate(-250.74 -70.15)"/>
      </g>
      <g id="Group_106" data-name="Group 106" class="cls-18" transform="translate(123.072 72.985)">
        <path id="Path_1504" data-name="Path 1504" class="cls-7" d="M282.411,88.007l-.039,16.628L267.9,96.288l.053-16.628Z" transform="translate(-267.9 -79.66)"/>
      </g>
      <g id="Group_107" data-name="Group 107" class="cls-18" transform="translate(145.628 85.472)">
        <path id="Path_1505" data-name="Path 1505" class="cls-7" d="M299.572,97.507l-.053,16.641-14.459-8.36.053-16.628Z" transform="translate(-285.06 -89.16)"/>
      </g>
      <g id="Group_108" data-name="Group 108" class="cls-17" transform="translate(98.768 33.669)">
        <path id="Path_1506" data-name="Path 1506" d="M316.25,88.355a7.177,7.177,0,0,1,3.247,5.626v9.727L249.41,63.223V49.75Z" transform="translate(-249.41 -49.75)"/>
      </g>
      <path id="Path_1507" data-name="Path 1507" class="cls-7" d="M253.979,56.976,214.913,34.42l-.013,4.456,39.065,22.556Z" transform="translate(-161.494 -20.901)"/>
      <path id="Path_1508" data-name="Path 1508" class="cls-7" d="M292.933,77.45l-.013,1.262,7.873,4.535V82Z" transform="translate(-136.961 -7.37)"/>
      <path id="Path_1509" data-name="Path 1509" class="cls-7" d="M292.91,83.619l7.874,4.535V86.918L292.91,82.37Z" transform="translate(-136.964 -5.823)"/>
      <path id="Path_1510" data-name="Path 1510" class="cls-7" d="M292.92,80.352l7.873,4.535V83.638L292.92,79.09Z" transform="translate(-136.961 -6.855)"/>
      <path id="Path_1511" data-name="Path 1511" class="cls-7" d="M292.91,81.979l7.874,4.535V85.278l-7.86-4.548Z" transform="translate(-136.964 -6.339)"/>
      <path id="Path_1512" data-name="Path 1512" class="cls-3" d="M336.607,90.3,222.671,24.575a2.327,2.327,0,0,0-2.313-.237h0l-8.518,6.112h0a2.313,2.313,0,0,1,2.287.237L328.064,96.476a6.769,6.769,0,0,1,2.484,2.787l9-5.192a7.151,7.151,0,0,0-2.944-3.772Z" transform="translate(-162.456 -24.135)"/>
      <path id="Path_1513" data-name="Path 1513" class="cls-19" d="M302.288,82.479a6.429,6.429,0,0,1,.762,2.839l-.447,46.518a2.3,2.3,0,0,1-.894,2.051h0l8.623-6.178h0a2.379,2.379,0,0,0,.815-1.985l.447-46.531a5.625,5.625,0,0,0-.355-1.853Z" transform="translate(-134.197 -7.405)"/>
      <path id="Path_1514" data-name="Path 1514" class="cls-5" d="M470.477,246.288,356.541,180.565a2.327,2.327,0,0,0-2.313-.237h0l-8.518,6.112h0a2.313,2.313,0,0,1,2.287.237l113.936,65.788a7.177,7.177,0,0,1,3.247,5.626l-.447,155.657a2.274,2.274,0,0,1-.907,2.051h0l8.623-6.178h0a2.366,2.366,0,0,0,.828-2l.447-155.657A7.177,7.177,0,0,0,470.477,246.288Z" transform="translate(-120.361 24.916)"/>
      <path id="Path_1515" data-name="Path 1515" class="cls-5" d="M465.073,412.245l.447-155.657a7.177,7.177,0,0,0-3.247-5.626L348.337,185.174a2.313,2.313,0,0,0-2.287-.237,2.261,2.261,0,0,0-.973,2.1l-.447,155.67a7.177,7.177,0,0,0,3.247,5.626l113.936,65.722a2.222,2.222,0,0,0,2.353.184,2.274,2.274,0,0,0,.907-2Z" transform="translate(-120.701 26.367)"/>
      <g id="Group_109" data-name="Group 109" class="cls-17" transform="translate(274.733 238.723)">
        <path id="Path_1516" data-name="Path 1516" d="M450.12,244.342a7.177,7.177,0,0,1,3.247,5.626v9.727L383.28,219.223V205.75Z" transform="translate(-383.28 -205.75)"/>
      </g>
      <path id="Path_1517" data-name="Path 1517" class="cls-20" d="M430.688,315.888h0l-.776-1.328-1.433.828,1.433-.828Z" transform="translate(-94.334 67.188)"/>
      <path id="Path_1518" data-name="Path 1518" class="cls-20" d="M430.758,290.021h0L430,288.68l-1.446.828L430,288.68Z" transform="translate(-94.312 59.051)"/>
      <path id="Path_1519" data-name="Path 1519" class="cls-20" d="M427.676,276.96l-.776.447.776-.447Z" transform="translate(-94.831 55.365)"/>
      <path id="Path_1520" data-name="Path 1520" class="cls-20" d="M381.948,279.906l-2.208-3.812.776-.434-.776.434,2.208,3.812Z" transform="translate(-109.66 54.956)"/>
      <path id="Path_1521" data-name="Path 1521" class="cls-20" d="M428.011,345.177l-.526-.907-.776.447.776-.447Z" transform="translate(-94.891 76.531)"/>
      <path id="Path_1522" data-name="Path 1522" class="cls-20" d="M429.008,315.784l-1.433-2.484-.776.434.776-.434Z" transform="translate(-94.862 66.792)"/>
      <path id="Path_1523" data-name="Path 1523" class="cls-20" d="M380.485,286.11l1.433,2.5,1.446-.841.762,1.341h0l-.762-1.341-1.446.841-1.433-2.5-.775.447h0Z" transform="translate(-109.67 58.242)"/>
      <rect id="Rectangle_77" data-name="Rectangle 77" class="cls-20" height="0.894" transform="translate(270.527 310.111)"/>
      <path id="Path_1524" data-name="Path 1524" class="cls-20" d="M383.508,319.678h0l-.762-1.328-1.446.828,1.446-.828Z" transform="translate(-109.17 68.38)"/>
      <path id="Path_1525" data-name="Path 1525" class="cls-20" d="M379.62,317.524l.776-.434h0l-.776.434,1.407,2.419Z" transform="translate(-109.698 67.984)"/>
      <path id="Path_1526" data-name="Path 1526" class="cls-20" d="M429.836,345.543l.762,1.328-.762-1.341-1.446.841h0Z" transform="translate(-94.362 76.927)"/>
      <path id="Path_1527" data-name="Path 1527" class="cls-20" d="M426.88,287.867h0l.762-.447Z" transform="translate(-94.837 58.654)"/>
      <path id="Path_1528" data-name="Path 1528" class="cls-20" d="M430.066,264.68l-1.446.815,1.446-.815Z" transform="translate(-94.29 51.504)"/>
      <path id="Path_1529" data-name="Path 1529" class="cls-7" d="M356.568,269.844l-7.992-4.614-.026,9.714,7.992,4.614Z" transform="translate(-119.468 51.677)"/>
      <path id="Path_1530" data-name="Path 1530" class="cls-7" d="M356.6,259.384l-7.992-4.614-.026,9.714,7.992,4.614Z" transform="translate(-119.459 48.388)"/>
      <path id="Path_1531" data-name="Path 1531" class="cls-7" d="M387.838,212.953,348.773,190.41l-.013,4.456,39.078,22.556Z" transform="translate(-119.402 28.15)"/>
      <path id="Path_1532" data-name="Path 1532" class="cls-7" d="M431.357,266.391l-.762-1.314-1.446.815-1.433-2.471-.776.421,2.208,3.812Z" transform="translate(-94.818 51.108)"/>
      <path id="Path_1533" data-name="Path 1533" class="cls-7" d="M356.651,243.964l-8.005-4.614-.026,9.714,7.992,4.627Z" transform="translate(-119.446 43.539)"/>
      <path id="Path_1534" data-name="Path 1534" class="cls-7" d="M356.681,233.5l-8.005-4.614-.026,9.714,8,4.627Z" transform="translate(-119.437 40.25)"/>
      <path id="Path_1535" data-name="Path 1535" class="cls-5" d="M348.716,215.33l-.026,9.727L448.378,282.6l.026-9.714Z" transform="translate(-119.424 35.986)"/>
      <path id="Path_1536" data-name="Path 1536" class="cls-5" d="M424.53,268.834l10.726,6.191v-9.714L424.53,259.12Zm3.943-4.062,1.433,2.471,1.446-.815h0l.762,1.314-2.208,1.314-2.208-3.812Z" transform="translate(-95.576 49.755)"/>
      <path id="Path_1537" data-name="Path 1537" class="cls-5" d="M348.746,204.32l-.026,9.714,99.688,57.56.026-9.714Z" transform="translate(-119.414 32.524)"/>
      <path id="Path_1538" data-name="Path 1538" class="cls-7" d="M431.386,255.387l-.762-1.328-1.446.815-1.433-2.484-.776.447,2.208,3.8Z" transform="translate(-94.809 47.639)"/>
      <path id="Path_1539" data-name="Path 1539" class="cls-5" d="M424.56,257.824l10.726,6.191V254.3L424.56,248.11Zm3.943-4.088,1.433,2.484,1.446-.815.762,1.314-2.208,1.314-2.169-3.851Z" transform="translate(-95.567 46.293)"/>
      <path id="Path_1540" data-name="Path 1540" class="cls-7" d="M384.227,252.764l-.762-1.328-1.446.828-1.433-2.484-.776.434,2.208,3.812Z" transform="translate(-109.638 46.818)"/>
      <path id="Path_1541" data-name="Path 1541" class="cls-5" d="M388.126,261.395v-9.714L377.4,245.49V255.2Zm-6.783-10.266,1.433,2.484,1.446-.828.762,1.314-2.208,1.314-2.208-3.812Z" transform="translate(-110.396 45.469)"/>
      <path id="Path_1542" data-name="Path 1542" class="cls-5" d="M357.8,254.364l25.724,14.853h0l.026-9.714L357.826,244.65Z" transform="translate(-116.559 45.205)"/>
      <path id="Path_1543" data-name="Path 1543" class="cls-5" d="M383.58,249.043,357.856,234.19l-.026,9.727,25.724,14.84Z" transform="translate(-116.55 41.916)"/>
      <path id="Path_1544" data-name="Path 1544" class="cls-7" d="M381.985,264.486l2.208-1.262-.762-1.328-1.446.815-1.433-2.471-.762.434Z" transform="translate(-109.645 50.108)"/>
      <path id="Path_1545" data-name="Path 1545" class="cls-5" d="M377.37,265.648l10.726,6.191v-9.714L377.4,256h0v9.714Zm3.943-4.075h0l1.433,2.471,1.446-.815.762,1.314-2.208,1.314-2.2-3.812h0Z" transform="translate(-110.406 48.774)"/>
      <path id="Path_1546" data-name="Path 1546" class="cls-5" d="M424.46,292.854l10.726,6.191v-9.714L424.46,283.14Zm3.181-3.641.762-.447,1.433,2.484,1.446-.828.762,1.314h0l-2.208,1.314-2.2-3.812Z" transform="translate(-95.598 57.308)"/>
      <path id="Path_1547" data-name="Path 1547" class="cls-5" d="M424.42,308.324l10.726,6.191V304.8L424.42,298.61Zm3.943-4.075,1.433,2.484,1.433-.828L432,307.22l-2.208,1.314-2.208-3.812Z" transform="translate(-95.611 62.173)"/>
      <path id="Path_1548" data-name="Path 1548" class="cls-5" d="M424.39,318.74l10.726,6.191V315.2l-10.7-6.2Zm3.943-4.088,1.433,2.484,1.446-.828.762,1.314h0l-2.208,1.314-2.208-3.8Z" transform="translate(-95.62 65.44)"/>
      <path id="Path_1549" data-name="Path 1549" class="cls-5" d="M404.846,297.71l-.026,9.727,25.724,14.853h0l.026-9.727Z" transform="translate(-101.774 61.89)"/>
      <path id="Path_1550" data-name="Path 1550" class="cls-5" d="M404.876,287.26l-.026,9.714,25.724,14.853.026-9.714Z" transform="translate(-101.764 58.604)"/>
      <path id="Path_1551" data-name="Path 1551" class="cls-5" d="M404.916,271.84l-.026,9.714,25.724,14.853.039-9.714Z" transform="translate(-101.752 53.755)"/>
      <path id="Path_1552" data-name="Path 1552" class="cls-5" d="M404.946,261.38l-.026,9.714,25.724,14.853.026-9.714Z" transform="translate(-101.742 50.466)"/>
      <path id="Path_1553" data-name="Path 1553" class="cls-7" d="M431.317,279.957l-.762-1.328-1.446.828-1.433-2.5-.776.447,2.208,3.812Z" transform="translate(-94.831 55.365)"/>
      <path id="Path_1554" data-name="Path 1554" class="cls-5" d="M424.51,272.68v9.714l10.726,6.191v-9.714Zm3.943,5.626h0l1.433,2.5,1.446-.828.762,1.315-2.208,1.314-2.208-3.812Z" transform="translate(-95.582 54.019)"/>
      <path id="Path_1555" data-name="Path 1555" class="cls-7" d="M395.71,276.254l8,4.614.026-9.714-8-4.614Z" transform="translate(-104.639 52.089)"/>
      <path id="Path_1556" data-name="Path 1556" class="cls-7" d="M403.771,260.694l-8.005-4.614-.026,9.714,7.992,4.627Z" transform="translate(-104.629 48.799)"/>
      <path id="Path_1557" data-name="Path 1557" class="cls-7" d="M429.075,291.679l2.208-1.262h0l-.762-1.341-1.446.828-1.433-2.484-.762.447h0Z" transform="translate(-94.837 58.654)"/>
      <path id="Path_1558" data-name="Path 1558" class="cls-5" d="M357.76,269.784l25.724,14.853h0l.026-9.714L357.786,260.07Z" transform="translate(-116.572 50.054)"/>
      <path id="Path_1559" data-name="Path 1559" class="cls-5" d="M377.33,281.084l10.726,6.191v-9.714L377.33,271.37Zm3.943-4.075,1.433,2.484,1.433-.828.776,1.314-2.208,1.314h0l-2.208-3.812Z" transform="translate(-110.418 53.607)"/>
      <path id="Path_1560" data-name="Path 1560" class="cls-7" d="M381.948,279.906h0l2.208-1.262-.776-1.328-1.433.828-1.433-2.484-.776.434Z" transform="translate(-109.66 54.956)"/>
      <path id="Path_1561" data-name="Path 1561" class="cls-7" d="M381.918,288.607l-1.433-2.5-.775.447,2.208,3.812,2.208-1.262-.762-1.341Z" transform="translate(-109.67 58.242)"/>
      <path id="Path_1562" data-name="Path 1562" class="cls-5" d="M377.3,291.544h0l10.726,6.191v-9.714L377.3,281.83h0Zm3.943-4.088,1.433,2.5,1.446-.841.762,1.315h0l-2.208,1.314-2.208-3.812h0Z" transform="translate(-110.428 56.897)"/>
      <path id="Path_1563" data-name="Path 1563" class="cls-7" d="M367.132,300.4l.026-9.714-7.992-4.614-.026,9.714Z" transform="translate(-116.138 58.23)"/>
      <path id="Path_1564" data-name="Path 1564" class="cls-5" d="M357.73,280.244,383.454,295.1h0l.026-9.714h0L357.756,270.53Z" transform="translate(-116.581 53.343)"/>
      <path id="Path_1565" data-name="Path 1565" class="cls-5" d="M386.277,318.02h0l-37.79-21.82-.026,9.714,37.79,21.82.026-9.714Z" transform="translate(-119.496 61.415)"/>
      <path id="Path_1566" data-name="Path 1566" class="cls-7" d="M381.027,319.942l.8,1.393,2.208-1.262-.762-1.328-1.446.828L380.4,317.09l-.776.434Z" transform="translate(-109.698 67.984)"/>
      <path id="Path_1567" data-name="Path 1567" class="cls-5" d="M377.23,312.8v9.714h0l10.726,6.191v-9.714Zm3.943,5.639h0l1.406,2.511,1.446-.828.762,1.314h0l-2.208,1.314-.8-1.393-1.406-2.419Z" transform="translate(-110.45 66.635)"/>
      <path id="Path_1568" data-name="Path 1568" class="cls-5" d="M433.367,345.21l-37.79-21.82-.026,9.714,37.79,21.82h0Z" transform="translate(-104.689 69.965)"/>
      <path id="Path_1569" data-name="Path 1569" class="cls-15" d="M348.716,215.33l-.026,9.727L448.378,282.6l.026-9.714Z" transform="translate(-119.424 35.986)"/>
      <path id="Path_1570" data-name="Path 1570" class="cls-15" d="M348.746,204.32l-.026,9.714,99.688,57.56.026-9.714Z" transform="translate(-119.414 32.524)"/>
      <path id="Path_1571" data-name="Path 1571" class="cls-15" d="M357.8,254.364l25.724,14.853h0l.026-9.714L357.826,244.65Z" transform="translate(-116.559 45.205)"/>
      <path id="Path_1572" data-name="Path 1572" class="cls-15" d="M383.58,249.043,357.856,234.19l-.026,9.727,25.724,14.84Z" transform="translate(-116.55 41.916)"/>
      <path id="Path_1573" data-name="Path 1573" class="cls-15" d="M404.846,297.71l-.026,9.727,25.724,14.853h0l.026-9.727Z" transform="translate(-101.774 61.89)"/>
      <path id="Path_1574" data-name="Path 1574" class="cls-15" d="M404.876,287.26l-.026,9.714,25.724,14.853.026-9.714Z" transform="translate(-101.764 58.604)"/>
      <path id="Path_1575" data-name="Path 1575" class="cls-15" d="M404.916,271.84l-.026,9.714,25.724,14.853.039-9.714Z" transform="translate(-101.752 53.755)"/>
      <path id="Path_1576" data-name="Path 1576" class="cls-15" d="M404.946,261.38l-.026,9.714,25.724,14.853.026-9.714Z" transform="translate(-101.742 50.466)"/>
      <path id="Path_1577" data-name="Path 1577" class="cls-15" d="M357.76,269.784l25.724,14.853h0l.026-9.714L357.786,260.07Z" transform="translate(-116.572 50.054)"/>
      <path id="Path_1578" data-name="Path 1578" class="cls-15" d="M357.73,280.244,383.454,295.1h0l.026-9.714h0L357.756,270.53Z" transform="translate(-116.581 53.343)"/>
      <path id="Path_1579" data-name="Path 1579" class="cls-15" d="M386.277,318.02h0l-37.79-21.82-.026,9.714,37.79,21.82.026-9.714Z" transform="translate(-119.496 61.415)"/>
      <path id="Path_1580" data-name="Path 1580" class="cls-15" d="M433.367,345.21l-37.79-21.82-.026,9.714,37.79,21.82h0Z" transform="translate(-104.689 69.965)"/>
      <path id="Path_1581" data-name="Path 1581" class="cls-5" d="M424.32,340v9.714h0l10.726,6.191v-9.714Zm3.943,5.626.526.907.907,1.59,1.446-.841.762,1.314-2.208,1.315-2.208-3.812Z" transform="translate(-95.642 75.188)"/>
      <path id="Path_1582" data-name="Path 1582" class="cls-21" d="M424.53,268.834l10.726,6.191v-9.714L424.53,259.12Zm3.943-4.062,1.433,2.471,1.446-.815h0l.762,1.314-2.208,1.314-2.208-3.812Z" transform="translate(-95.576 49.755)"/>
      <path id="Path_1583" data-name="Path 1583" class="cls-21" d="M424.56,257.824l10.726,6.191V254.3L424.56,248.11Zm3.943-4.088,1.433,2.484,1.446-.815.762,1.314-2.208,1.314-2.169-3.851Z" transform="translate(-95.567 46.293)"/>
      <path id="Path_1584" data-name="Path 1584" class="cls-21" d="M388.126,261.395v-9.714L377.4,245.49V255.2Zm-6.783-10.266,1.433,2.484,1.446-.828.762,1.314-2.208,1.314-2.208-3.812Z" transform="translate(-110.396 45.469)"/>
      <path id="Path_1585" data-name="Path 1585" class="cls-21" d="M377.37,265.648l10.726,6.191v-9.714L377.4,256h0v9.714Zm3.943-4.075h0l1.433,2.471,1.446-.815.762,1.314-2.208,1.314-2.2-3.812h0Z" transform="translate(-110.406 48.774)"/>
      <path id="Path_1586" data-name="Path 1586" class="cls-21" d="M424.46,292.854l10.726,6.191v-9.714L424.46,283.14Zm3.181-3.641.762-.447,1.433,2.484,1.446-.828.762,1.314h0l-2.208,1.314-2.2-3.812Z" transform="translate(-95.598 57.308)"/>
      <path id="Path_1587" data-name="Path 1587" class="cls-21" d="M424.42,308.324l10.726,6.191V304.8L424.42,298.61Zm3.943-4.075,1.433,2.484,1.433-.828L432,307.22l-2.208,1.314-2.208-3.812Z" transform="translate(-95.611 62.173)"/>
      <path id="Path_1588" data-name="Path 1588" class="cls-21" d="M424.39,318.74l10.726,6.191V315.2l-10.7-6.2Zm3.943-4.088,1.433,2.484,1.446-.828.762,1.314h0l-2.208,1.314-2.208-3.8Z" transform="translate(-95.62 65.44)"/>
      <path id="Path_1589" data-name="Path 1589" class="cls-21" d="M424.51,272.68v9.714l10.726,6.191v-9.714Zm3.943,5.626h0l1.433,2.5,1.446-.828.762,1.315-2.208,1.314-2.208-3.812Z" transform="translate(-95.582 54.019)"/>
      <path id="Path_1590" data-name="Path 1590" class="cls-21" d="M377.33,281.084l10.726,6.191v-9.714L377.33,271.37Zm3.943-4.075,1.433,2.484,1.433-.828.776,1.314-2.208,1.314h0l-2.208-3.812Z" transform="translate(-110.418 53.607)"/>
      <path id="Path_1591" data-name="Path 1591" class="cls-21" d="M377.3,291.544h0l10.726,6.191v-9.714L377.3,281.83h0Zm3.943-4.088,1.433,2.5,1.446-.841.762,1.315h0l-2.208,1.314-2.208-3.812h0Z" transform="translate(-110.428 56.897)"/>
      <path id="Path_1592" data-name="Path 1592" class="cls-21" d="M377.23,312.8v9.714h0l10.726,6.191v-9.714Zm3.943,5.639h0l1.406,2.511,1.446-.828.762,1.314h0l-2.208,1.314-.8-1.393-1.406-2.419Z" transform="translate(-110.45 66.635)"/>
      <path id="Path_1593" data-name="Path 1593" class="cls-21" d="M424.32,340v9.714h0l10.726,6.191v-9.714Zm3.943,5.626.526.907.907,1.59,1.446-.841.762,1.314-2.208,1.315-2.208-3.812Z" transform="translate(-95.642 75.188)"/>
      <path id="Path_1594" data-name="Path 1594" class="cls-7" d="M431.127,347.267l-.762-1.328-1.446.828h0l-.907-1.59-.526-.907-.776.447,2.208,3.812Z" transform="translate(-94.891 76.531)"/>
      <path id="Path_1595" data-name="Path 1595" class="cls-7" d="M395.64,302.137l7.992,4.614.026-9.714-7.992-4.627Z" transform="translate(-104.661 60.223)"/>
      <path id="Path_1596" data-name="Path 1596" class="cls-7" d="M395.67,291.677l7.992,4.614.026-9.714L395.7,281.95Z" transform="translate(-104.651 56.934)"/>
      <path id="Path_1597" data-name="Path 1597" class="cls-7" d="M431.246,305.834l-.762-1.328-1.446.828-1.433-2.484-.776.434,2.2,3.812Z" transform="translate(-94.853 63.506)"/>
      <path id="Path_1598" data-name="Path 1598" class="cls-7" d="M431.217,316.284h0l-.776-1.328-1.433.828-1.433-2.484-.776.434,2.208,3.812Z" transform="translate(-94.862 66.792)"/>
      <path id="Path_1599" data-name="Path 1599" class="cls-7" d="M356.531,284.544l-7.992-4.614-.039,9.714,8.005,4.614Z" transform="translate(-119.484 56.299)"/>
      <path id="Path_1600" data-name="Path 1600" class="cls-7" d="M383.08,309.6l7.992,4.614.026-9.714-7.992-4.614Z" transform="translate(-108.61 62.576)"/>
      <path id="Path_1601" data-name="Path 1601" class="cls-7" d="M393.7,315.734l8,4.627.026-9.714-8.005-4.627Z" transform="translate(-105.271 64.503)"/>
      <path id="Path_1602" data-name="Path 1602" class="cls-7" d="M415.816,318.77l-.026,9.727,7.992,4.614.026-9.714Z" transform="translate(-98.324 68.512)"/>
      <path id="Path_1603" data-name="Path 1603" class="cls-7" d="M426.41,334.624l8.018,4.627.026-9.714-8-4.627Z" transform="translate(-94.985 70.443)"/>
      <path id="Path_1604" data-name="Path 1604" class="cls-7" d="M426.79,233.44V234.7l7.874,4.535v-1.249Z" transform="translate(-94.866 41.68)"/>
      <path id="Path_1605" data-name="Path 1605" class="cls-7" d="M426.78,239.609l7.86,4.535.013-1.249-7.874-4.535Z" transform="translate(-94.869 43.227)"/>
      <path id="Path_1606" data-name="Path 1606" class="cls-7" d="M426.79,236.342l7.86,4.535.013-1.249-7.874-4.548Z" transform="translate(-94.866 42.196)"/>
      <path id="Path_1607" data-name="Path 1607" class="cls-7" d="M426.78,237.969l7.874,4.535v-1.236l-7.874-4.548Z" transform="translate(-94.869 42.712)"/>
      <path id="Path_1608" data-name="Path 1608" class="cls-14" d="M470.477,246.288,356.541,180.565a2.327,2.327,0,0,0-2.313-.237h0l-8.518,6.112h0a2.313,2.313,0,0,1,2.287.237l113.936,65.788a6.69,6.69,0,0,1,2.484,2.787l8.951-5.14A7.15,7.15,0,0,0,470.477,246.288Z" transform="translate(-120.361 24.916)"/>
      <path id="Path_1609" data-name="Path 1609" class="cls-11" d="M436.142,238.469a6.429,6.429,0,0,1,.762,2.839l-.447,155.657a2.274,2.274,0,0,1-.907,2.051h0l8.623-6.178h0a2.366,2.366,0,0,0,.828-2l.447-155.657a5.626,5.626,0,0,0-.355-1.853Z" transform="translate(-92.111 41.646)"/>
      <path id="Path_1610" data-name="Path 1610" class="cls-3" d="M346.827,288.607l-.013,5.547-62.173-36.66.013-5.534Z" transform="translate(-139.564 47.504)"/>
      <path id="Path_1611" data-name="Path 1611" class="cls-3" d="M331.172,265.53l-.013,5.534L284.68,243.487l.013-5.547Z" transform="translate(-139.552 43.095)"/>
      <path id="Path_1612" data-name="Path 1612" class="cls-3" d="M373.582,297.622l-.013,5.534L284.66,251.077l.013-5.547Z" transform="translate(-139.558 45.482)"/>
      <path id="Path_1613" data-name="Path 1613" class="cls-3" d="M373.622,283.6l-.026,5.534-88.9-52.092.013-5.521Z" transform="translate(-139.545 41.077)"/>
    </g>
    <g id="freepik--character-1--inject-191" transform="translate(70.025 97.948)">
      <path id="Path_1614" data-name="Path 1614" class="cls-22" d="M196.285,136.386s.933-3.943-1.551-4.5c0,0,2.143-4.522-.565-5.416s-6.125,8.15-10.095,11.83c-.723.815-5.363,5.008-5.981,3.654h0l-6.375,2.458a12.225,12.225,0,0,1-1.8,5.1c-6.835,10.41-14.63,15.432-20.453,22.845l-5.652-5.481L133.06,181.826l10.516,7.887a11.83,11.83,0,0,0,16.838-2.866l19.428-28.918a10.16,10.16,0,0,1,3.22-3.036c3.089-1.827,9.043-5.534,11.239-8.242C197.389,143.024,197.757,139.015,196.285,136.386Z" transform="translate(-34.631 -65.787)"/>
      <path id="Path_1615" data-name="Path 1615" class="cls-5" d="M116.21,137.852c10.765-.473,25.369,16.983,33.6,25.211-.631,10.069-11.462,16.68-11.462,16.68a233.69,233.69,0,0,1-22.135-17.311Z" transform="translate(-39.93 -62.193)"/>
      <path id="Path_1616" data-name="Path 1616" class="cls-14" d="M116.21,137.852c10.765-.473,25.369,16.983,33.6,25.211-.631,10.069-11.462,16.68-11.462,16.68a233.69,233.69,0,0,1-22.135-17.311Z" transform="translate(-39.93 -62.193)"/>
      <path id="Path_1617" data-name="Path 1617" class="cls-5" d="M204.484,80.29l33.466,71.69-58.611,15.879L145.86,96.169Z" transform="translate(-30.606 -80.29)"/>
      <g id="Group_110" data-name="Group 110" class="cls-17" transform="translate(115.254)">
        <path id="Path_1618" data-name="Path 1618" class="cls-7" d="M204.484,80.29l33.466,71.69-58.611,15.879L145.86,96.169Z" transform="translate(-145.86 -80.29)"/>
      </g>
      <path id="Path_1619" data-name="Path 1619" class="cls-7" d="M210.295,127.021l.841,1.814a2.629,2.629,0,0,1-.8,1.985,4.049,4.049,0,0,1-5.047.736,7.176,7.176,0,0,1-1.564-1.314,5.98,5.98,0,0,1-1.144,2.445,4.219,4.219,0,0,1-2.327,1.485,6.165,6.165,0,0,1-4.85-.762l-.618-.394a13.315,13.315,0,0,1-4.469-5.56,10.358,10.358,0,0,1-1.222-6.428,4.535,4.535,0,0,1,3.641-3.47,8.873,8.873,0,0,1,2.366-.263,6.954,6.954,0,0,1,2.274.407l-3.51-7.505a7.282,7.282,0,0,0-2.235-3.063l-.2-.131a2.852,2.852,0,0,0-2.2-.329,2,2,0,0,0-1.525,1.433,2.459,2.459,0,0,1,.828.315,3.249,3.249,0,0,1,.736.565,5.967,5.967,0,0,1,1.2,1.748,5.087,5.087,0,0,1,.552,3.168,2.064,2.064,0,0,1-1.564,1.682,3.063,3.063,0,0,1-2.34-.368c-.145-.079-.289-.184-.434-.276a7.637,7.637,0,0,1-2.327-3A8.872,8.872,0,0,1,183.48,108a5.652,5.652,0,0,1,1.314-3.549,7.361,7.361,0,0,1,3.943-2.248,7.887,7.887,0,0,1,6.244.684l.21.131a13.881,13.881,0,0,1,4.955,6.2L207.14,124.2a5.363,5.363,0,0,0,1.985,2.471,2.747,2.747,0,0,0,1.17.355Zm-8.912,1.42a2.314,2.314,0,0,0,.591-.881l-2.629-5.481a5.007,5.007,0,0,0-1.314-.421,3.036,3.036,0,0,0-1.2,0,1.6,1.6,0,0,0-1.183,1.446,5.416,5.416,0,0,0,.684,3.023,5.849,5.849,0,0,0,1.814,2.34,2.773,2.773,0,0,0,.355.237,2.392,2.392,0,0,0,1.84.289,1.946,1.946,0,0,0,.933-.552" transform="translate(-18.777 -73.51)"/>
      <path id="Path_1620" data-name="Path 1620" class="cls-7" d="M199.823,134.545a5.653,5.653,0,0,1,.158,1.814l-9.74,2.629a7.452,7.452,0,0,1-1.315-1.472,10.514,10.514,0,0,1-1.144-1.906c1.314-.381,1.63-1.459.776-3.273a21.15,21.15,0,0,0-1.485-2.629l-.776-1.13-8.044,2.2.342,1.236a16.676,16.676,0,0,0,.841,2.629,4.4,4.4,0,0,0,1.643,2.051,2.51,2.51,0,0,0,1.985.21,9.543,9.543,0,0,1,.71,2.024,5.652,5.652,0,0,1,.158,1.814l-8.005,2.169a7.123,7.123,0,0,1-1.38-1.472,11.384,11.384,0,0,1-1.144-1.919,2,2,0,0,0,1.393-1.433,5.77,5.77,0,0,0,0-3.063L167.922,106.1a8.517,8.517,0,0,0-3.943.25,9.332,9.332,0,0,1-1.038-4.311l9.845-2.629,21.623,30.232a8.359,8.359,0,0,0,2.537,2.484,3.076,3.076,0,0,0,2.313.526A9.475,9.475,0,0,1,199.823,134.545Zm-22.9-8.373,6.48-1.748-9.1-13.315a20.163,20.163,0,0,0-2.182-2.629l4.8,17.732" transform="translate(-25.235 -74.278)"/>
      <path id="Path_1621" data-name="Path 1621" class="cls-22" d="M123.882,312.13c-.2,4.574,0,9.95,0,9.95l-2.629.145a6.441,6.441,0,0,0-5.7,4.246v.171a2.511,2.511,0,0,1-3.1,1.538h0a2.5,2.5,0,0,1-1.512-1.314l-1.314-11.488Z" transform="translate(-42.002 -7.388)"/>
      <path id="Path_1622" data-name="Path 1622" class="cls-3" d="M127.745,345.915c6.967,2.984,17.627,3.562,22.056-3.549v1.919c-4.43,7.111-15.09,6.572-22.056,3.562s-5.442-7.887-11.685-10.516a16.864,16.864,0,0,1-6.1-3.851,20.744,20.744,0,0,0-.21-2.09,21.032,21.032,0,0,0,6.309,4.009C122.3,338.081,120.778,342.944,127.745,345.915Z" transform="translate(-41.961 -1.332)"/>
      <path id="Path_1623" data-name="Path 1623" class="cls-5" d="M109.815,328.81a10.2,10.2,0,0,0,0-4.114,2.182,2.182,0,0,1,.315-1.814l.526-.513.25,2.116a2.5,2.5,0,0,0,4.614-.223v-.171a6.441,6.441,0,0,1,5.7-4.246l2.629-.145a1.958,1.958,0,0,1,1.906,1.2c2.787,6.7,9.766,14.157,15.156,17.561,3.943-.092,8.859,3.194,8.859,7.19v.394c-4.43,7.111-15.09,6.572-22.056,3.549s-5.442-7.887-11.685-10.45a21.032,21.032,0,0,1-6.309-4.009A22.346,22.346,0,0,1,109.815,328.81Z" transform="translate(-42.026 -5.009)"/>
      <path id="Path_1624" data-name="Path 1624" class="cls-7" d="M120.331,332.021a.881.881,0,0,1-1.314-1.065,10.121,10.121,0,0,1,9.1-3.943,16.062,16.062,0,0,0,1.144,1.314,9.727,9.727,0,0,0-8.925,3.694Z" transform="translate(-39.069 -2.725)"/>
      <path id="Path_1625" data-name="Path 1625" class="cls-7" d="M118.281,329.728a.854.854,0,0,1-1.222.118.881.881,0,0,1-.145-1.222,10.607,10.607,0,0,1,9.49-4.1c.329.5.684,1,1.038,1.485A9.832,9.832,0,0,0,118.281,329.728Z" transform="translate(-39.766 -3.509)"/>
      <path id="Path_1626" data-name="Path 1626" class="cls-7" d="M122.554,334.331a.894.894,0,0,1-1.236.118.881.881,0,0,1-.145-1.223,10.069,10.069,0,0,1,8.859-4.009c.447.473.907.92,1.314,1.314A9.727,9.727,0,0,0,122.554,334.331Z" transform="translate(-38.426 -2.025)"/>
      <path id="Path_1627" data-name="Path 1627" class="cls-7" d="M136.562,334c3.943-.092,8.859,3.194,8.859,7.19v.394c-4.364,7.006-14.774,6.572-21.741,3.68C124.219,335.657,133.407,333.922,136.562,334Z" transform="translate(-37.581 -0.512)"/>
      <path id="Path_1628" data-name="Path 1628" class="cls-7" d="M124.783,336.511a.881.881,0,0,1-1.236.118.894.894,0,0,1-.145-1.222,10.135,10.135,0,0,1,8.886-4.009c.552.5,1.1.959,1.656,1.393A9.832,9.832,0,0,0,124.783,336.511Z" transform="translate(-37.724 -1.339)"/>
      <path id="Path_1629" data-name="Path 1629" class="cls-22" d="M95.712,318.57c-.2,4.574,0,9.964,0,9.964l-2.629.145a6.441,6.441,0,0,0-5.7,4.232v.171a2.5,2.5,0,0,1-3.1,1.538h0a2.485,2.485,0,0,1-1.512-1.314L81.45,321.817Z" transform="translate(-50.86 -5.363)"/>
      <path id="Path_1630" data-name="Path 1630" class="cls-3" d="M99.575,352.368c6.953,2.971,17.627,3.549,22.056-3.562v1.932c-4.43,7.111-15.1,6.572-22.056,3.549s-5.442-7.887-11.685-10.516a16.957,16.957,0,0,1-6.1-3.838c0-.565-.118-1.314-.21-2.1a21.227,21.227,0,0,0,6.309,4.022C94.133,344.534,92.648,349.384,99.575,352.368Z" transform="translate(-50.819 0.693)"/>
      <path id="Path_1631" data-name="Path 1631" class="cls-5" d="M81.645,335.247a10.109,10.109,0,0,0,0-4.1,2.2,2.2,0,0,1,.315-1.827l.513-.513.263,2.129a2.511,2.511,0,0,0,4.614-.237v-.171a6.441,6.441,0,0,1,5.7-4.233l2.629-.145a1.919,1.919,0,0,1,1.906,1.2c2.787,6.7,9.766,14.143,15.156,17.561,3.943-.092,8.859,3.181,8.859,7.177v.394c-4.43,7.111-15.1,6.572-22.056,3.562s-5.442-7.887-11.685-10.45a21.227,21.227,0,0,1-6.309-4.022A22.345,22.345,0,0,1,81.645,335.247Z" transform="translate(-50.884 -2.981)"/>
      <path id="Path_1632" data-name="Path 1632" class="cls-7" d="M92.215,338.481a.894.894,0,0,1-1.236.105.854.854,0,0,1-.145-1.209,10.055,10.055,0,0,1,9.1-3.943c.368.46.749.907,1.144,1.314a9.74,9.74,0,0,0-8.859,3.733Z" transform="translate(-47.968 -0.707)"/>
      <path id="Path_1633" data-name="Path 1633" class="cls-7" d="M90.078,336.165a.881.881,0,0,1-1.314-1.1,10.608,10.608,0,0,1,9.438-4.049c.329.5.684.986,1.038,1.485a9.832,9.832,0,0,0-9.162,3.667Z" transform="translate(-48.591 -1.467)"/>
      <path id="Path_1634" data-name="Path 1634" class="cls-7" d="M94.374,340.784a.894.894,0,0,1-1.236.105.881.881,0,0,1-.145-1.222,10.069,10.069,0,0,1,8.859-4.009c.447.473.907.933,1.314,1.38A9.674,9.674,0,0,0,94.374,340.784Z" transform="translate(-47.287 0)"/>
      <path id="Path_1635" data-name="Path 1635" class="cls-7" d="M108.392,340.42c3.943-.092,8.859,3.181,8.859,7.177v.394c-4.364,7.006-14.774,6.572-21.741,3.68C96.049,342.1,105.237,340.381,108.392,340.42Z" transform="translate(-46.439 1.507)"/>
      <path id="Path_1636" data-name="Path 1636" class="cls-7" d="M96.578,342.964a.881.881,0,0,1-1.314-1.1,10.108,10.108,0,0,1,8.886-4.022c.552.5,1.1.96,1.656,1.407a9.832,9.832,0,0,0-9.227,3.72Z" transform="translate(-46.547 0.686)"/>
      <path id="Path_1637" data-name="Path 1637" class="cls-3" d="M143.023,202.18l-1.314,88.9-4.193,62.213c-10.621,6.717-21.6.355-21.6.355-4.022-29.483-4.18-47.7-1.985-59.965l-1.314-47.465-2.064,49.055-10.016,62.87c-10.9,7.072-22.74-.21-22.74-.21,0-22.6-2.313-49.45,3.943-65.722-4.4-50.37,3.023-89.067,3.023-89.067Z" transform="translate(-52.139 -41.962)"/>
      <path id="Path_1638" data-name="Path 1638" class="cls-15" d="M108.613,223.3l-4.4,17.863.631,22.924,6.572-36.936c9.477-3.707,10.713-8.925,10.713-8.925a29.116,29.116,0,0,1-13.513,5.074Z" transform="translate(-43.703 -36.915)"/>
      <path id="Path_1639" data-name="Path 1639" class="cls-5" d="M88.078,146.47c15.405-7.229,26.959-8.071,39.552-8.61,18.849,12.132,11.83,22.24,11.475,38.448a224.153,224.153,0,0,0,5.81,52.946c-24.7,19.717-57.389,15.09-64.855,10.358C81.821,191.345,79.705,149.874,88.078,146.47Z" transform="translate(-51.297 -62.187)"/>
      <path id="Path_1640" data-name="Path 1640" class="cls-23" d="M88.078,146.47c15.405-7.229,26.959-8.071,39.552-8.61,18.849,12.132,11.83,22.24,11.475,38.448a224.153,224.153,0,0,0,5.81,52.946c-24.7,19.717-57.389,15.09-64.855,10.358C81.821,191.345,79.705,149.874,88.078,146.47Z" transform="translate(-51.297 -62.187)"/>
      <path id="Path_1641" data-name="Path 1641" class="cls-19" d="M131.466,127.747a12.842,12.842,0,0,0,3.562-16.93,6.914,6.914,0,0,0,3.378-3.181,3.72,3.72,0,0,0-4.837-4.969,5.258,5.258,0,0,0-2.09-6.1,4.929,4.929,0,0,0-6.152,1.13,3.339,3.339,0,0,0-2.287-3.286,6.875,6.875,0,0,0-4.259.263c-1.314.473-2.629,1.157-4.035,1.59a32.019,32.019,0,0,1-7.269.933,14.643,14.643,0,0,0-7.006,1.867c-2.051,1.314-3.864,4.43-2.76,7.111a4.048,4.048,0,0,0-2.918-1.551,3.943,3.943,0,0,0-2.984,1.314c1.525.946,3.01,1.959,4.535,2.9a4.141,4.141,0,0,0-4.666,1.867,9.306,9.306,0,0,0-.815,4.916,65.723,65.723,0,0,0,3.378,18.836c1.038,3.142,3.943,8.478,6.914,9.924Z" transform="translate(-47.917 -75.918)"/>
      <path id="Path_1642" data-name="Path 1642" class="cls-22" d="M131.905,107.11a16.247,16.247,0,0,1-10.792,4.535c-3.8,0-7.479-1.209-11.147-2.208a8.465,8.465,0,0,1-2.511,4.64,9.674,9.674,0,0,1-5.258,2.261,33.294,33.294,0,0,1,0,10.345,1.932,1.932,0,0,1-1.314,1.59c-1.236.368-2.051-.894-2.629-1.919a8.255,8.255,0,0,0-2.629-2.984,4.141,4.141,0,0,0-3.864-.394,4.022,4.022,0,0,0-2.037,2.484,7.427,7.427,0,0,0-.158,3.273,9.832,9.832,0,0,0,2.129,5.008,6.756,6.756,0,0,0,4.758,2.458,4.9,4.9,0,0,0,4.587-2.261l.079.342a13.139,13.139,0,0,0,.5,1.59,13.7,13.7,0,0,0,10,8.57c2.327.486,4.9.946,7.532,1.314,1.314.2,2.629.381,3.943.539a9.359,9.359,0,0,0,10.345-7.663C135.113,128.667,135.7,117.008,131.905,107.11Z" transform="translate(-48.343 -71.857)"/>
      <path id="Path_1643" data-name="Path 1643" class="cls-22" d="M98.68,129v17.43a19.243,19.243,0,0,0,14.025,7.768,6.874,6.874,0,0,0,5.034-1.314,4.075,4.075,0,0,0-.513-6.467,2.235,2.235,0,0,1-1.012-1.867v-5.665c-2.629-.394-5.258-.854-7.532-1.314a13.7,13.7,0,0,1-10-8.57Z" transform="translate(-45.442 -64.973)"/>
      <path id="Path_1644" data-name="Path 1644" class="cls-24" d="M110.244,141.21a38.332,38.332,0,0,0,5.889,1.038v-3.536c-2.629-.394-5.258-.854-7.532-1.314a13.657,13.657,0,0,1-9.661-7.808,14,14,0,0,0,3.523,7.282,16.8,16.8,0,0,0,7.782,4.338Z" transform="translate(-45.36 -64.788)"/>
      <path id="Path_1645" data-name="Path 1645" class="cls-24" d="M115.12,118.44l6.4,7.742-5.876,2.077Z" transform="translate(-40.272 -68.294)"/>
      <path id="Path_1646" data-name="Path 1646" class="cls-19" d="M108.25,119.6a1.748,1.748,0,1,0,.517-1.241,1.761,1.761,0,0,0-.517,1.241Z" transform="translate(-42.433 -68.479)"/>
      <path id="Path_1647" data-name="Path 1647" class="cls-19" d="M119.472,119.278a1.761,1.761,0,1,0,.831-1.651A1.761,1.761,0,0,0,119.472,119.278Z" transform="translate(-38.906 -68.632)"/>
      <path id="Path_1648" data-name="Path 1648" class="cls-19" d="M118.76,113.248l4.706.539a2.5,2.5,0,0,0-1.972-2.077A3,3,0,0,0,118.76,113.248Z" transform="translate(-39.128 -70.411)"/>
      <path id="Path_1649" data-name="Path 1649" class="cls-19" d="M111.868,113.151l-4.548,1.314a2.484,2.484,0,0,1,1.577-2.379A2.971,2.971,0,0,1,111.868,113.151Z" transform="translate(-42.725 -70.313)"/>
      <path id="Path_1650" data-name="Path 1650" class="cls-24" d="M110.041,127.85l4.9,2.379a3.207,3.207,0,0,1-3.72,1.065A2.918,2.918,0,0,1,110.041,127.85Z" transform="translate(-41.923 -65.335)"/>
      <path id="Path_1651" data-name="Path 1651" class="cls-15" d="M110.041,127.85l4.9,2.379a3.207,3.207,0,0,1-3.72,1.065A2.918,2.918,0,0,1,110.041,127.85Z" transform="translate(-41.923 -65.335)"/>
      <path id="Path_1652" data-name="Path 1652" class="cls-24" d="M112.919,131.257a3,3,0,0,1-1.709-.158,2.629,2.629,0,0,1-1.314-2.629,3.036,3.036,0,0,1,1.932.67A3.1,3.1,0,0,1,112.919,131.257Z" transform="translate(-41.922 -65.14)"/>
      <path id="Path_1653" data-name="Path 1653" class="cls-22" d="M81.525,244.933,59.784,206.814a15.34,15.34,0,0,1-.381-12.842L71.5,165.527A37.068,37.068,0,0,1,92.527,145.35l3.05-1.13c1.735,17.088-3.418,25.277-19.033,54.918,0,0,8.228,27.6,14.656,39.933a46.413,46.413,0,0,1,13.749,9.964,2.5,2.5,0,0,1,.145,3.286h0a2.313,2.313,0,0,1-2.879.618c-2.09-1.078-4.18-2.2-6.283-3.26a67.733,67.733,0,0,0,8.163,13.513,2.55,2.55,0,0,1-.158,3.312h0a2.511,2.511,0,0,1-2.235.776l-6.809-1a12.3,12.3,0,0,1-9.2-6.756,41.931,41.931,0,0,1-4.167-14.59Z" transform="translate(-58.178 -60.187)"/>
      <path id="Path_1654" data-name="Path 1654" class="cls-5" d="M94.131,144.18C80.895,148.715,73.4,151.725,62.9,180.222c5.258,8.136,19.717,7.032,19.717,7.032C101.453,158.849,94.131,144.18,94.131,144.18Z" transform="translate(-56.693 -60.2)"/>
      <path id="Path_1655" data-name="Path 1655" class="cls-14" d="M94.131,144.18C80.895,148.715,73.4,151.725,62.9,180.222c5.258,8.136,19.717,7.032,19.717,7.032C101.453,158.849,94.131,144.18,94.131,144.18Z" transform="translate(-56.693 -60.2)"/>
      <path id="Path_1656" data-name="Path 1656" class="cls-22" d="M168.855,140.6a1.84,1.84,0,0,1,.079-1.222c1.012-3.549,2.037-6.914.092-8.32a1.091,1.091,0,0,0-1.617.486c-.776,1.669-2.629,4.653-3.654,6.638a19.217,19.217,0,0,0-1.314,4.89l6.375-2.458Z" transform="translate(-25.393 -64.386)"/>
    </g>
    <g id="freepik--character-3--inject-191" transform="translate(50.846 267.852)">
      <path id="Path_1657" data-name="Path 1657" class="cls-24" d="M146.671,261.77c-.3-1.1.223-6.178-1-7.045s1.065-2.695,3.286-.868S146.671,261.77,146.671,261.77Z" transform="translate(-11.594 -195.863)"/>
      <path id="Path_1658" data-name="Path 1658" class="cls-12" d="M147.47,233.275l.118,39.8,15.09-8.715-.105-39.8Z" transform="translate(-10.921 -204.829)"/>
      <path id="Path_1659" data-name="Path 1659" class="cls-5" d="M148.66,233.527l.026,7.7,11.975-6.914-.013-7.716Z" transform="translate(-10.547 -204.188)"/>
      <path id="Path_1660" data-name="Path 1660" class="cls-5" d="M148.68,240.744l.026,7.716,11.975-6.914-.013-7.716Z" transform="translate(-10.54 -201.914)"/>
      <path id="Path_1661" data-name="Path 1661" class="cls-5" d="M148.7,247.974l.026,7.716,11.975-6.914-.013-7.716Z" transform="translate(-10.534 -199.641)"/>
      <path id="Path_1662" data-name="Path 1662" class="cls-5" d="M148.72,255.217l.026,7.7,11.975-6.927-.013-7.7Z" transform="translate(-10.528 -197.367)"/>
      <g id="Group_111" data-name="Group 111" class="cls-6" transform="translate(138.113 22.412)">
        <path id="Path_1663" data-name="Path 1663" class="cls-7" d="M148.66,233.527l.026,7.7,11.975-6.914-.013-7.716Z" transform="translate(-148.66 -226.6)"/>
      </g>
      <g id="Group_112" data-name="Group 112" class="cls-25" transform="translate(138.14 31.916)">
        <path id="Path_1664" data-name="Path 1664" class="cls-7" d="M148.68,240.744l.026,7.716,11.975-6.914-.013-7.716Z" transform="translate(-148.68 -233.83)"/>
      </g>
      <g id="Group_113" data-name="Group 113" class="cls-26" transform="translate(138.166 41.419)">
        <path id="Path_1665" data-name="Path 1665" class="cls-7" d="M148.7,247.974l.026,7.716,11.975-6.914-.013-7.716Z" transform="translate(-148.7 -241.06)"/>
      </g>
      <path id="Path_1666" data-name="Path 1666" class="cls-8" d="M84.431,256.586l-21.9,49.634,11.16,12.224-3.943,16.694-22.07-19.151a11.9,11.9,0,0,1-2.918-14.13l17.771-36.8a15.156,15.156,0,0,1,13.92-8.57Z" transform="translate(-43.587 -194.793)"/>
      <path id="Path_1667" data-name="Path 1667" class="cls-15" d="M54.61,300.459s3.5-2.9,4.469-6.1l1.932,2.129A9.964,9.964,0,0,1,54.61,300.459Z" transform="translate(-40.12 -182.881)"/>
      <path id="Path_1668" data-name="Path 1668" class="cls-19" d="M86.573,458.331c.92,1.932,3.825,3.707,7.019,4.232s6.428-.158,9.622-.6a63.314,63.314,0,0,1,14.367-.368,75.7,75.7,0,0,0,8.951.631,14.156,14.156,0,0,0,8.4-2.629,8.544,8.544,0,0,0,3.155-5.363,8.07,8.07,0,0,1-3.155,7.229,14.261,14.261,0,0,1-8.4,2.629,75.7,75.7,0,0,1-8.951-.644,63.317,63.317,0,0,0-14.367.368c-3.194.447-6.664,1.315-9.858.841s-6.152-2.3-7.006-4.154Z" transform="translate(-30.14 -132.61)"/>
      <path id="Path_1669" data-name="Path 1669" class="cls-7" d="M114.079,454.572c-2.629,0-1.7-3.943-4.259-6.572,1.038,0,2.09.066,3.128.066C115.314,451.365,115.88,454.572,114.079,454.572Z" transform="translate(-22.76 -134.569)"/>
      <path id="Path_1670" data-name="Path 1670" class="cls-7" d="M109.93,454.662c-2.629,0-1.985-4.732-4.64-7.492a14.731,14.731,0,0,0,1.84.526c.526.118,1.052.21,1.59.289C111.087,451.337,111.757,454.662,109.93,454.662Z" transform="translate(-24.184 -134.83)"/>
      <path id="Path_1671" data-name="Path 1671" class="cls-4" d="M89.3,446.61a3.562,3.562,0,0,1,1.393-2.182l14.459-.368a12.382,12.382,0,0,0,6.02,4.127c2.629,2.76,1.945,7.492,4.64,7.492,1.827,0,1.157-3.326-1.209-6.677.841.131,1.682.21,2.524.263,2.629,2.629,1.577,6.572,4.259,6.572,1.8,0,1.17-3.247-1.13-6.572h2.024a10.96,10.96,0,0,0,1.853-.105c5.337,4.219,5.784,8.781,5.1,15.957a18.046,18.046,0,0,1-2.773.289,75.638,75.638,0,0,1-8.951-.631,63.317,63.317,0,0,0-14.367.368c-3.194.447-6.441,1.13-9.622.6s-6.1-2.3-7.019-4.233Z" transform="translate(-30.093 -135.808)"/>
      <path id="Path_1672" data-name="Path 1672" class="cls-7" d="M115.15,448.07a22.77,22.77,0,0,1,7.256,0,8.662,8.662,0,0,1,6.572,5.679,6.414,6.414,0,0,1,.105,2.55,8.544,8.544,0,0,1-3.155,5.363,12.553,12.553,0,0,1-5.626,2.366C120.934,456.784,120.487,452.223,115.15,448.07Z" transform="translate(-21.084 -134.638)"/>
      <path id="Path_1673" data-name="Path 1673" class="cls-24" d="M104.591,440.89v6.98a2.879,2.879,0,0,1-2.879,2.879H94.457a4.706,4.706,0,0,1-4.706-4.561l-.171-5.258Z" transform="translate(-29.124 -136.805)"/>
      <path id="Path_1674" data-name="Path 1674" class="cls-19" d="M64.367,443.244a5.363,5.363,0,0,0,4.39,3.076,9.2,9.2,0,0,0,5.573-1.314c2.511-1.591,3.483-4.1,5.258-6.375a39.091,39.091,0,0,1,6.06-5.915A19.94,19.94,0,0,0,91.432,426a8.66,8.66,0,0,0,.7-2.458,8.754,8.754,0,0,1-.7,4.732,19.9,19.9,0,0,1-5.784,6.7,38.6,38.6,0,0,0-6.06,5.928c-1.722,2.261-2.629,4.771-5.258,6.362a9.2,9.2,0,0,1-5.573,1.315,5.363,5.363,0,0,1-4.39-3.076,11.909,11.909,0,0,1-.263-3.943,4.824,4.824,0,0,0,.263,1.682Z" transform="translate(-37.154 -142.26)"/>
      <path id="Path_1675" data-name="Path 1675" class="cls-7" d="M79.012,427.945a1.84,1.84,0,0,1,.342,1.2,1.314,1.314,0,0,1-.789.907,1.788,1.788,0,0,1-1.63-.421,9.363,9.363,0,0,1-1.13-1.314,8.518,8.518,0,0,0-3.72-2.721,8.71,8.71,0,0,0-2.235-.486l1.814-1.656a8.991,8.991,0,0,1,7.348,4.535Z" transform="translate(-35.328 -142.289)"/>
      <path id="Path_1676" data-name="Path 1676" class="cls-7" d="M78.092,422.684a9.2,9.2,0,0,1,4.049,3.733,1.787,1.787,0,0,1,.342,1.183,1.209,1.209,0,0,1-.789.907,1.722,1.722,0,0,1-1.656-.421,9.194,9.194,0,0,1-1.13-1.314,8.4,8.4,0,0,0-7.387-3.207l1.788-1.63A9.082,9.082,0,0,1,78.092,422.684Z" transform="translate(-34.803 -142.784)"/>
      <path id="Path_1677" data-name="Path 1677" class="cls-7" d="M73.77,422.174a18.847,18.847,0,0,1,5.692-3.8,7.571,7.571,0,0,1,7.887,1.078,6.8,6.8,0,0,1,1.735,5.862,8.662,8.662,0,0,1-.7,2.458,12.55,12.55,0,0,1-1.788,2.852C85.9,424.383,80.421,421.465,73.77,422.174Z" transform="translate(-34.096 -144.089)"/>
      <path id="Path_1678" data-name="Path 1678" class="cls-4" d="M64.225,437.907a12.9,12.9,0,0,1,1.42-6.1l3.523-3.694,2.511-2.287a8.718,8.718,0,0,1,2.235.486,8.517,8.517,0,0,1,3.72,2.721,9.355,9.355,0,0,0,1.13,1.314,1.788,1.788,0,0,0,1.63.421,1.315,1.315,0,0,0,.789-.907,1.84,1.84,0,0,0-.342-1.2,8.991,8.991,0,0,0-7.348-4.535l.407-.368a8.4,8.4,0,0,1,7.387,3.207,9.2,9.2,0,0,0,1.13,1.314,1.722,1.722,0,0,0,1.63.421,1.209,1.209,0,0,0,.789-.907,1.788,1.788,0,0,0-.342-1.183,9.2,9.2,0,0,0-4.048-3.733,9.083,9.083,0,0,0-4.758-.776h0l1.078-.973c6.651-.71,12.067,2.208,12.763,8.452a29.232,29.232,0,0,1-3.943,3.864,39.1,39.1,0,0,0-6.06,5.915c-1.722,2.274-2.629,4.785-5.258,6.375a9.2,9.2,0,0,1-5.573,1.314,5.363,5.363,0,0,1-4.39-3.076,4.824,4.824,0,0,1-.263-1.63,41.722,41.722,0,0,1,.184-4.443Z" transform="translate(-37.156 -143.049)"/>
      <path id="Path_1679" data-name="Path 1679" class="cls-24" d="M76.74,425.48l-.407,7.492c-4.732,2.721-9.7,1.236-11.357-.486l-.315-7.006Z" transform="translate(-36.96 -141.65)"/>
      <path id="Path_1680" data-name="Path 1680" class="cls-3" d="M68.914,303.453a7.3,7.3,0,0,0,.723-1.183,68.088,68.088,0,0,0,48.753,5.547c3.457,25.711,6.428,69.232,4.6,97.953-1.512,33.426-7.663,80.76-7.663,80.76-8.031,2.405-14.051.933-16.312-.8-2.629-33.164-8.57-55.89-4.022-77.828-3.023-15.326-4.982-34.583-4.982-34.583l-2.327,33.873L79.8,466.734a14.039,14.039,0,0,1-14.078-.71c-5.7-34.044-7.887-57.126-2.852-74.03C55.284,336.091,54.9,321.829,68.914,303.453Z" transform="translate(-39.164 -180.393)"/>
      <path id="Path_1681" data-name="Path 1681" class="cls-15" d="M84.678,358.019l-4.206-17.64c-4.9-.8-12.566-4.022-16.6-10.739A33.821,33.821,0,0,0,84.218,336.8l3.838,27.906-.828,11.922-.329-4.338a90.315,90.315,0,0,0-2.221-14.275Z" transform="translate(-37.209 -171.787)"/>
      <path id="Path_1682" data-name="Path 1682" class="cls-7" d="M99.136,257.814,111.4,260.22c2.708,4.969,5.468,9.622,8.176,14.577,2.037,3.733,4.141,7.716,3.943,11.961a12.172,12.172,0,0,1-7.335,10.516l6.375,42.22c-16.562,15.037-59.15,4.285-64.329-.171,2.221-11.278,7.1-15.773,9.648-27.6,2.037-9.477-1.945-19.861-2.629-22.977a73.716,73.716,0,0,1-2.064-13.723,24.291,24.291,0,0,1,3.273-13.394l.066-.118a15,15,0,0,1,15.064-6.454Z" transform="translate(-38.982 -195.311)"/>
      <path id="Path_1683" data-name="Path 1683" class="cls-3" d="M76.812,220.139a20.637,20.637,0,0,0-8.965,18.139c.263,4.062,1.761,8.058,1.314,12.093-.276,2.379-1.209,4.785-.591,7.085a7.414,7.414,0,0,0,3.864,4.377c1.774.92,5.915.684,7.887,1.078,5.981,5.442,13.486,3.4,18.258-1.446s12.474-23.095,12.474-23.095a24.974,24.974,0,0,0,3.772-11.9,9.977,9.977,0,0,0-1.722-6.769c-1.5-1.853-4.469-2.629-6.336-1.17,1.775-1.314.5-4.535-1.314-5.81a7.677,7.677,0,0,0-6.48-.486,61.363,61.363,0,0,1-6.388,2.077c-2.9.526-5.9-.131-8.833.184S77.1,217.208,76.812,220.139Z" transform="translate(-35.967 -208.86)"/>
      <path id="Path_1684" data-name="Path 1684" class="cls-27" d="M101.745,236.13l3.733,6.493-4.088,1.512Z" transform="translate(-25.411 -201.191)"/>
      <path id="Path_1685" data-name="Path 1685" class="cls-24" d="M110.11,237.225c-.6-5.692-2.274-11.055-5.981-13.775a30.692,30.692,0,0,1-4.259,20.361,9.03,9.03,0,0,0-2.76-4.877,5.153,5.153,0,0,0-5.258-1.13,5.258,5.258,0,0,0-2.629,2.9,6.914,6.914,0,0,0,8.636,9.135,13.289,13.289,0,0,1-10.213,10.332,17.088,17.088,0,0,1-9.9-.946l-1.538,7.676c6.244,6.664,16.917,2.182,16.917,2.182l1.406-7.545c12.277.736,13.434.526,14.774-6.244A66.248,66.248,0,0,0,110.11,237.225Z" transform="translate(-33.328 -205.178)"/>
      <path id="Path_1686" data-name="Path 1686" class="cls-3" d="M100.669,246.7c-.079,2.313,0,4.522-.105,6.835a18.244,18.244,0,0,0,.71,7.216,6.309,6.309,0,0,0,5.35,4.338,16.4,16.4,0,0,1-14.774,2.629A16.023,16.023,0,0,1,81.426,257.2a12.211,12.211,0,0,0,3.483,9.977A14.551,14.551,0,0,1,71.87,264.31a14.183,14.183,0,0,1-4.85-12.264c.355-3.194,1.8-6.138,2.8-9.2s1.525-6.572.118-9.385a84.659,84.659,0,0,0,9.517,9.779,26.289,26.289,0,0,0,11.436,6.244,11.686,11.686,0,0,0,4.863.184,9.2,9.2,0,0,0,4.916-2.971Z" transform="translate(-36.244 -202.031)"/>
      <path id="Path_1687" data-name="Path 1687" class="cls-13" d="M82.569,225.708a11.83,11.83,0,0,1-11.9,11.9,11.475,11.475,0,0,1-2.787-.342v-.407a20.637,20.637,0,0,1,8.965-18.139,4.758,4.758,0,0,1,1.1-2.445,11.83,11.83,0,0,1,4.614,9.438Z" transform="translate(-35.955 -207.436)"/>
      <circle id="Ellipse_16" data-name="Ellipse 16" class="cls-3" cx="11.909" cy="11.909" r="11.909" transform="translate(21.973 5.293) rotate(-12.84)"/>
      <path id="Path_1688" data-name="Path 1688" class="cls-24" d="M165.178,279.052a239.926,239.926,0,0,1-26.289,33.781,6.454,6.454,0,0,1-8.163.868c-13.355-8.807-24.4-23.739-24.4-23.739l14.459-9.95L133.316,296.3l23.66-23.318,1.564-12.947a3.154,3.154,0,0,1,1.893-2.537l6.677-2.905a3.2,3.2,0,0,1,2.484,0l3.943,1.63a1.709,1.709,0,0,1,.723,2.629h0a1.7,1.7,0,0,1-1.866.631l-1.919-.565L175,262.28a3.562,3.562,0,0,1,1.446,2.865v2.327a3.549,3.549,0,0,1-1.59,2.971l-.552.368a1.84,1.84,0,0,1-2.629-.644h0C170.83,274.99,165.178,279.052,165.178,279.052Z" transform="translate(-23.857 -195.465)"/>
      <path id="Path_1689" data-name="Path 1689" class="cls-28" d="M157.092,258.219l-1.209-.8a1.945,1.945,0,0,0-1.472-.289l-5.521,1.091,5.166-1.775a1.985,1.985,0,0,1,2.208.67Z" transform="translate(-10.474 -194.836)"/>
      <path id="Path_1690" data-name="Path 1690" class="cls-28" d="M156,267.559c.513-1.814.8-4.246,0-5.139l2.261,1.236-.25,2.313Z" transform="translate(-8.239 -192.924)"/>
      <path id="Path_1691" data-name="Path 1691" class="cls-7" d="M136.664,276.312a2.905,2.905,0,0,0-2.734.723L130.6,280.2a2.944,2.944,0,0,0-.868,2.537v.3l.96-.907c11.83,3.759,10.516,15.576,10.516,15.576l-1.669,2.116a2.931,2.931,0,0,0,2.787-1.052l4.127-5.258a2.892,2.892,0,0,0,.631-1.945C146.93,288.286,145.655,278.559,136.664,276.312Z" transform="translate(-16.506 -188.584)"/>
      <path id="Path_1692" data-name="Path 1692" class="cls-12" d="M136.664,276.312a2.905,2.905,0,0,0-2.734.723L130.6,280.2a2.944,2.944,0,0,0-.868,2.537v.3l.96-.907c11.83,3.759,10.516,15.576,10.516,15.576l-1.669,2.116a2.931,2.931,0,0,0,2.787-1.052l4.127-5.258a2.892,2.892,0,0,0,.631-1.945C146.93,288.286,145.655,278.559,136.664,276.312Z" transform="translate(-16.506 -188.584)"/>
      <path id="Path_1693" data-name="Path 1693" class="cls-8" d="M140.888,287.669l-.96.907-3.943,3.772-1.406-2.169-16.155-21.031a26.814,26.814,0,0,0-18.008-10.266l-2.156-.263s-4.325,18.166,4.955,28.274l17.745,18.783a70.034,70.034,0,0,0,11.83,9.135,8.268,8.268,0,0,0,11-1.84l7.65-9.714S152.718,291.429,140.888,287.669Z" transform="translate(-26.711 -194.119)"/>
    </g>
    <g id="freepik--character-2--inject-191" transform="translate(228.025 113.987)">
      <path id="Path_1694" data-name="Path 1694" class="cls-29" d="M206.532,146.86l4.745,4.4L203.1,196.77l-5.047,29.667-17.364,2.024,7.1-31.691,13.447-52.46Z" transform="translate(-177.653 -76.198)"/>
      <path id="Path_1695" data-name="Path 1695" class="cls-5" d="M200.317,204.38c-11.961-4.443-19.848,1.84-19.848,1.84l-1.959,50.817,21.373-12.224Z" transform="translate(-178.339 -57.809)"/>
      <path id="Path_1696" data-name="Path 1696" class="cls-19" d="M200.317,204.38c-11.961-4.443-19.848,1.84-19.848,1.84l-1.959,50.817,21.373-12.224Z" transform="translate(-178.339 -57.809)"/>
      <path id="Path_1697" data-name="Path 1697" class="cls-30" d="M200.317,204.38c-11.961-4.443-19.848,1.84-19.848,1.84l-1.959,50.817,21.373-12.224Z" transform="translate(-178.339 -57.809)"/>
      <path id="Path_1698" data-name="Path 1698" class="cls-5" d="M204.219,92.976c-1.959-1.13-3.562-.21-3.575,2.051L200,168.083a7.887,7.887,0,0,0,3.562,6.165l87.9,50.738c1.958,1.144,3.562.223,3.575-2.037l.631-73.031a7.887,7.887,0,0,0-3.562-6.165Z" transform="translate(-171.581 -92.492)"/>
      <path id="Path_1699" data-name="Path 1699" class="cls-29" d="M242.77,245.974l18.876-6.3,12.422-46.913a7.1,7.1,0,0,0-.355-4.114l-1.314-3.273a13.421,13.421,0,0,1-.96-5.429l.237-7.164a2.208,2.208,0,0,1,2.2-2.129h0a2.182,2.182,0,0,1,2.143,1.8l1.13,6.23,2.629,3.023,2.129-8.531V162.06l5.626,8.1a9.858,9.858,0,0,1,1.6,7.177l-2.248,13.631-6.046,52.749a21.031,21.031,0,0,1-13.342,17.246l-19.822,7.65Z" transform="translate(-158.132 -70.617)"/>
      <path id="Path_1700" data-name="Path 1700" class="cls-19" d="M212.08,444.152c1.025,3.22,4.548,5.061,7.887,5.337s6.7-.683,10.029-1.314c7.44-1.314,14.617,0,22.043-.184a31.126,31.126,0,0,0,7.243-.789,12.039,12.039,0,0,0,6.2-3.654,8.07,8.07,0,0,0,1.775-3.878,7.663,7.663,0,0,1-1.775,6.06,12.04,12.04,0,0,1-6.2,3.654,31.838,31.838,0,0,1-7.243.789c-7.427.171-14.6-1.17-22.043.184-3.326.6-6.651,1.551-10.029,1.314s-6.888-2.1-7.887-5.323a8.386,8.386,0,0,1-.263-3.431,6.809,6.809,0,0,0,.263,1.236Z" transform="translate(-167.888 16.677)"/>
      <path id="Path_1701" data-name="Path 1701" class="cls-3" d="M212.28,441.472l1.314-6.756a9.781,9.781,0,0,1,1.144-3.444,3.391,3.391,0,0,1,3.01-1.722c4.075-.539,9.806-2.024,13.145.315a30.43,30.43,0,0,0,18.231,5.258c3.365-.118,6.743-.815,10.082-.394s6.835,2.261,7.821,5.481a6.376,6.376,0,0,1,.171,2.944,8.07,8.07,0,0,1-1.774,3.878,12.04,12.04,0,0,1-6.2,3.654,31.13,31.13,0,0,1-7.243.789c-7.427.171-14.6-1.157-22.043.184-3.326.6-6.651,1.551-10.029,1.314s-6.888-2.116-7.887-5.337a6.811,6.811,0,0,1-.263-1.249,16.417,16.417,0,0,1,.526-4.916Z" transform="translate(-167.89 13.192)"/>
      <path id="Path_1702" data-name="Path 1702" class="cls-29" d="M231.15,424.17l.289,8.807a3.5,3.5,0,0,1-3.234,3.6,57.163,57.163,0,0,1-8.886-.079,5.021,5.021,0,0,1-4.535-4.666l-.355-6.507Z" transform="translate(-167.044 11.803)"/>
      <path id="Path_1703" data-name="Path 1703" class="cls-19" d="M183.4,425.876a6.875,6.875,0,0,0,1.17,3.641,6.572,6.572,0,0,0,4.167,2.34,10.516,10.516,0,0,0,10.318-4.246c1.1-1.6,1.735-3.5,2.787-5.139a23.539,23.539,0,0,1,5.784-5.626,24.463,24.463,0,0,0,5.823-5.573,8.229,8.229,0,0,0,1.117-7.453,5.455,5.455,0,0,1,.552.933,8.465,8.465,0,0,1-1.052,7.887,24.976,24.976,0,0,1-5.941,5.876,23.844,23.844,0,0,0-5.915,5.8c-1.065,1.7-1.709,3.641-2.839,5.258a10.674,10.674,0,0,1-10.516,4.39,6.836,6.836,0,0,1-4.246-2.419,8.2,8.2,0,0,1-1.222-5.061A4.537,4.537,0,0,1,183.4,425.876Z" transform="translate(-176.815 5.404)"/>
      <path id="Path_1704" data-name="Path 1704" class="cls-3" d="M186.063,415.835c2.629-4.693,8.2-8.11,12.461-11.436a16.023,16.023,0,0,1,8.255-3.746,7.742,7.742,0,0,1,7.69,3.943,1.406,1.406,0,0,1,.092.25,8.229,8.229,0,0,1-1.117,7.453,24.465,24.465,0,0,1-5.823,5.573,23.542,23.542,0,0,0-5.784,5.626c-1.052,1.643-1.683,3.536-2.787,5.139a10.516,10.516,0,0,1-10.318,4.246,6.573,6.573,0,0,1-4.167-2.34,6.875,6.875,0,0,1-1.17-3.641,10.108,10.108,0,0,1,0-1.314A20.663,20.663,0,0,1,186.063,415.835Z" transform="translate(-176.809 4.391)"/>
      <path id="Path_1705" data-name="Path 1705" class="cls-29" d="M197.42,409.09v8a13.407,13.407,0,0,1-12.461-.539l-.749-7.216Z" transform="translate(-176.546 7.061)"/>
      <path id="Path_1706" data-name="Path 1706" class="cls-5" d="M182.982,298.58c-2.405,7.2.552,41.431,1.945,74.266-5.258,12.408-3.8,47.636-.8,72.65,0,0,10.516,3.417,19.861.223l6.572-69.271,1.643-39.039s2.958,34.636,6.362,56.85c-3.194,17.009-4.469,19.4.565,72.912,0,0,13.052,4.351,22.661-.368,4.469-73.517,2.826-140.528,1.972-164.622Z" transform="translate(-177.422 -27.688)"/>
      <path id="Path_1707" data-name="Path 1707" class="cls-15" d="M182.982,298.58c-2.405,7.2.552,41.431,1.945,74.266-5.258,12.408-3.8,47.636-.8,72.65,0,0,10.516,3.417,19.861.223l6.572-69.271,1.643-39.039s2.958,34.636,6.362,56.85c-3.194,17.009-4.469,19.4.565,72.912,0,0,13.052,4.351,22.661-.368,4.469-73.517,2.826-140.528,1.972-164.622Z" transform="translate(-177.422 -27.688)"/>
      <path id="Path_1708" data-name="Path 1708" class="cls-15" d="M208.941,356.677l1.314-31.823c-8.228,0-15.865-6.152-21.675-11.975,5.586,9.924,16.391,14.327,16.391,14.327Z" transform="translate(-175.172 -23.192)"/>
      <path id="Path_1709" data-name="Path 1709" class="cls-19" d="M245.969,326.2c-36.713,15.379-60.465,1.485-63.724-5.744,1.7-25.382-4.311-55.062-3.838-67.668s2-26.815,21.557-23.976l20.795,2.037,10.516,2.563L243.932,259.7Z" transform="translate(-178.38 -49.743)"/>
      <path id="Path_1710" data-name="Path 1710" class="cls-19" d="M198.643,234.461a5.508,5.508,0,0,1-4.062-1.315,4.022,4.022,0,0,1-.973-3.483,3.812,3.812,0,0,1-2.787-2.261,4.324,4.324,0,0,1,.644-3.8,6.414,6.414,0,0,1-4.127-3.378,6.7,6.7,0,0,1-.184-5.481A5.915,5.915,0,0,1,183,210.617a6.414,6.414,0,0,1,1.17-5.928,8.005,8.005,0,0,1-.933-7.965,8.491,8.491,0,0,1,6.848-4.614,8.2,8.2,0,0,1,2.629-7.361,7.887,7.887,0,0,1,7.558-1.485,7.256,7.256,0,0,1,12.106-2.077,5.521,5.521,0,0,1,4.9-1.8,5.7,5.7,0,0,1,4.43,2.918,7.427,7.427,0,0,1,10.516,7.111,4.4,4.4,0,0,1,3.142,4.325,4.666,4.666,0,0,1-3.628,4.18,103.734,103.734,0,0,1-9.753,28.563c-2.064,3.943-4.587,8.071-8.583,10.161C209.119,238.917,202.336,237.629,198.643,234.461Z" transform="translate(-177.059 -65.36)"/>
      <path id="Path_1711" data-name="Path 1711" class="cls-19" d="M198.643,234.461a5.508,5.508,0,0,1-4.062-1.315,4.022,4.022,0,0,1-.973-3.483,3.812,3.812,0,0,1-2.787-2.261,4.324,4.324,0,0,1,.644-3.8,6.414,6.414,0,0,1-4.127-3.378,6.7,6.7,0,0,1-.184-5.481A5.915,5.915,0,0,1,183,210.617a6.414,6.414,0,0,1,1.17-5.928,8.005,8.005,0,0,1-.933-7.965,8.491,8.491,0,0,1,6.848-4.614,8.2,8.2,0,0,1,2.629-7.361,7.887,7.887,0,0,1,7.558-1.485,7.256,7.256,0,0,1,12.106-2.077,5.521,5.521,0,0,1,4.9-1.8,5.7,5.7,0,0,1,4.43,2.918,7.427,7.427,0,0,1,10.516,7.111,4.4,4.4,0,0,1,3.142,4.325,4.666,4.666,0,0,1-3.628,4.18,103.734,103.734,0,0,1-9.753,28.563c-2.064,3.943-4.587,8.071-8.583,10.161C209.119,238.917,202.336,237.629,198.643,234.461Z" transform="translate(-177.059 -65.36)"/>
      <path id="Path_1712" data-name="Path 1712" class="cls-28" d="M221.237,203.28l4.311,7.479-4.719,1.748Z" transform="translate(-165.031 -57.655)"/>
      <path id="Path_1713" data-name="Path 1713" class="cls-31" d="M221.237,203.28l4.311,7.479-4.719,1.748Z" transform="translate(-165.031 -57.655)"/>
      <path id="Path_1714" data-name="Path 1714" class="cls-29" d="M227.927,193.36a69.772,69.772,0,0,1,1.236,31.81,10.818,10.818,0,0,1-1.972,5.034,7.887,7.887,0,0,1-5.468,2.524,24.149,24.149,0,0,1-6.139-.591v9.74c-7.4,1.735-15,2.432-20.795-2.037v-9.964a26.407,26.407,0,0,0,12.908.8c5.1-2.747,6.125-12.08,5.415-14.538a3.838,3.838,0,0,1-3.943,1.393,5.258,5.258,0,0,1-3.312-2.629,10.805,10.805,0,0,1-1.236-4.141,7.571,7.571,0,0,1,.749-5.139,5.363,5.363,0,0,1,5.784-1.945,8.281,8.281,0,0,1,4.877,4.062,14.062,14.062,0,0,1,.854,1.867,1.157,1.157,0,0,0,2.235-.289,15.458,15.458,0,0,0-1.459-8.15,5.626,5.626,0,0,0,4.167-2.55,5.258,5.258,0,0,0,.815-4.679A15.918,15.918,0,0,0,227.927,193.36Z" transform="translate(-173.22 -60.774)"/>
      <path id="Path_1715" data-name="Path 1715" class="cls-29" d="M201.572,153.826l3.812-9.845,1.722-7.729a1.972,1.972,0,0,0-1.314-2.3h0a1.958,1.958,0,0,0-2.5,1.236l-1.446,4.193V127.55l-4.942,8.846a7.768,7.768,0,0,0-.946,4.364L195,156.35Z" transform="translate(-173.153 -81.468)"/>
      <path id="Path_1716" data-name="Path 1716" class="cls-19" d="M221.3,234.631c11.7-3.878,32.519-10.161,32.519-10.161,9.346,9.425,8.557,24.646,8.557,24.646L234,260.946C206.921,269.5,202.978,240.69,221.3,234.631Z" transform="translate(-168.42 -50.992)"/>
      <path id="Path_1717" data-name="Path 1717" class="cls-30" d="M221.3,234.631c11.7-3.878,32.519-10.161,32.519-10.161,9.346,9.425,8.557,24.646,8.557,24.646L234,260.946C206.921,269.5,202.978,240.69,221.3,234.631Z" transform="translate(-168.42 -50.992)"/>
      <path id="Path_1718" data-name="Path 1718" class="cls-7" d="M230.106,121.15l-23.884,18.8-.053,18.376,79.419,45.848.053-18.363-15.129-30.061L256.921,166.3l4.8,14.919-6.967-13.25Z" transform="translate(-169.641 -83.481)"/>
      <path id="Path_1719" data-name="Path 1719" class="cls-7" d="M245.843,128.412c-3.733-2.156-6.769-.421-6.783,3.878a14.866,14.866,0,0,0,6.743,11.685c3.733,2.156,6.783.421,6.8-3.878A14.906,14.906,0,0,0,245.843,128.412Z" transform="translate(-159.299 -81.489)"/>
    </g>
  </g>
</svg>
