<svg xmlns="http://www.w3.org/2000/svg" width="612.734" height="612.966" viewBox="0 0 612.734 612.966">
  <defs>
    <style>
      .cls-1 {
        fill: #f5f5f5;
      }

      .cls-2, .cls-7 {
        fill: #e0e0e0;
      }

      .cls-3 {
        fill: #37474f;
      }

      .cls-10, .cls-4 {
        fill: #fff;
      }

      .cls-13, .cls-5 {
        fill: #455a64;
      }

      .cls-15, .cls-16, .cls-6 {
        fill: #407bff;
      }

      .cls-7 {
        opacity: 0.81;
      }

      .cls-16, .cls-8 {
        opacity: 0.15;
      }

      .cls-9 {
        fill: #263238;
      }

      .cls-10 {
        opacity: 0.9;
      }

      .cls-11 {
        opacity: 0.4;
      }

      .cls-12 {
        fill: #f0f0f0;
      }

      .cls-13, .cls-14, .cls-20 {
        opacity: 0.5;
      }

      .cls-15, .cls-27 {
        opacity: 0.1;
      }

      .cls-17 {
        fill: #ffa8a7;
      }

      .cls-18 {
        opacity: 0.3;
      }

      .cls-19 {
        fill: #f28f8f;
      }

      .cls-21 {
        fill: #ffbda7;
      }

      .cls-22 {
        opacity: 0.2;
      }

      .cls-23 {
        opacity: 0.6;
      }

      .cls-24 {
        fill: #e6e6e6;
      }

      .cls-25 {
        fill: #f79776;
      }

      .cls-26 {
        opacity: 0.25;
      }

      .cls-28 {
        fill: #914f4e;
      }

      .cls-29 {
        fill: #783736;
      }
    </style>
  </defs>
  <g id="About_us_page-amico" data-name="About us page-amico" transform="translate(-19.94 -29.35)">
    <g id="freepik--Floor--inject-4" transform="translate(19.94 288.561)">
      <ellipse id="freepik--floor--inject-4-2" data-name="freepik--floor--inject-4" class="cls-1" cx="306.367" cy="176.878" rx="306.367" ry="176.878"/>
    </g>
    <g id="freepik--Shadows--inject-4" transform="translate(160.838 478.384)">
      <ellipse id="freepik--Shadow--inject-4" class="cls-2" cx="56.332" cy="32.522" rx="56.332" ry="32.522" transform="translate(161.576 19.263)"/>
      <ellipse id="freepik--shadow--inject-4-2" data-name="freepik--shadow--inject-4" class="cls-2" cx="56.332" cy="32.522" rx="56.332" ry="32.522" transform="translate(308.123)"/>
      <ellipse id="freepik--shadow--inject-4-3" data-name="freepik--shadow--inject-4" class="cls-2" cx="56.332" cy="32.522" rx="56.332" ry="32.522" transform="translate(0 68.026)"/>
    </g>
    <g id="freepik--Plants--inject-4" transform="translate(53.292 399.524)">
      <g id="freepik--plants--inject-4-2" data-name="freepik--plants--inject-4">
        <path id="Path_982" data-name="Path 982" class="cls-3" d="M113.12,373.733s-1.47-34.387-15.887-53.527-32.087-21.89-40.84-16.5c-6.4,3.921-5.541,15.574,5.527,23.143s32.4,26.968,35.735,39.615Z" transform="translate(-41.569 -301.271)"/>
        <path id="Path_983" data-name="Path 983" class="cls-4" d="M99.2,365.895a.9.9,0,0,1-.83-.939C99.853,333.754,72.5,314.3,65.057,310.8a.9.9,0,0,1-.436-1.184.912.912,0,0,1,1.2-.436c7.637,3.621,35.857,23.673,34.333,55.815a.9.9,0,0,1-.939.844Z" transform="translate(-37.177 -298.442)"/>
        <path id="Path_984" data-name="Path 984" class="cls-5" d="M109.185,351.317a8.168,8.168,0,0,1-5.323-2.069c-1.674-1.838-1.538-4.656-2.314-7.024-1.266-3.893-5.105-6.534-9.107-7.365a27.648,27.648,0,0,0-12.143.817c-8.032,1.974-15.751-2.968-23.8-2.382a16.036,16.036,0,0,0-8.168,2.546,8.685,8.685,0,0,0-3.893,7.3,9.311,9.311,0,0,0,3.322,6.112,27.959,27.959,0,0,0,6.1,3.812l7.065,3.607a12.458,12.458,0,0,1,3.335,2.178,9.407,9.407,0,0,1,2.464,7.528c-.545,2.723-2.723,4.792-3.417,7.46-.858,3.5,1.28,7.242,4.356,9.135a17.833,17.833,0,0,0,10.455,2.042c3.608-.2,7.174-.926,10.782-.994a12.7,12.7,0,0,1,7.024,1.538,13.028,13.028,0,0,1,4.942,7.174,19.06,19.06,0,0,0,2.205,5.255,10.168,10.168,0,0,0,4.751,3.335,16.254,16.254,0,0,0,11.231,0c2.981-1.143,4.438-4.506,5.554-7.419a25.865,25.865,0,0,0,1.566-9.529,60.865,60.865,0,0,0-5.541-24.15c-1.674-3.485-4.084-6.97-7.787-8.168a23.486,23.486,0,0,0-3.662-.735Z" transform="translate(-44.44 -289.719)"/>
        <path id="Path_985" data-name="Path 985" class="cls-4" d="M114.676,387.152a.79.79,0,0,1-.749-.531c-8.4-24.082-48.137-45.033-62.621-47.442a.793.793,0,1,1,.259-1.565c14.811,2.45,55.338,23.864,63.982,48.477a.79.79,0,0,1-.49,1.021A.858.858,0,0,1,114.676,387.152Z" transform="translate(-42.199 -288.144)"/>
        <path id="Path_986" data-name="Path 986" class="cls-4" d="M71.632,366.544a.79.79,0,0,1-.476-1.361,39.969,39.969,0,0,1,22.081-7.093h0a.8.8,0,0,1,0,1.593A39.193,39.193,0,0,0,72.1,366.489.817.817,0,0,1,71.632,366.544Z" transform="translate(-34.876 -280.741)"/>
      </g>
    </g>
    <g id="freepik--Page--inject-4" transform="translate(123.301 29.35)">
      <path id="Path_987" data-name="Path 987" class="cls-5" d="M98.766,517.155a6.6,6.6,0,0,1-2.886-5.214V228.254a6.807,6.807,0,0,1,3.077-5.323L432.7,30.235a5.758,5.758,0,0,1,8.821,5.091v283.7a6.807,6.807,0,0,1-3.077,5.323L104.7,517.046a6.6,6.6,0,0,1-5.935.109Z" transform="translate(-95.861 -29.35)"/>
      <path id="Path_988" data-name="Path 988" class="cls-6" d="M104.116,454.86h-.123a1.075,1.075,0,0,1-.3.123h-.231a1.927,1.927,0,0,1-.422.1.98.98,0,0,1-.286.068l-.463.068a5.963,5.963,0,0,1-3.539-.613,6.548,6.548,0,0,1-2.872-5.2V202.17l5.772,3.335V452.818c0,1.361.694,2.205,1.7,2.205a1.355,1.355,0,0,0,.408,0h0a1.279,1.279,0,0,0,.354-.163Z" transform="translate(-95.861 33.095)"/>
      <path id="Path_989" data-name="Path 989" class="cls-7" d="M104.116,454.86h-.123a1.075,1.075,0,0,1-.3.123h-.231a1.927,1.927,0,0,1-.422.1.98.98,0,0,1-.286.068l-.463.068a5.963,5.963,0,0,1-3.539-.613,6.548,6.548,0,0,1-2.872-5.2V202.17l5.772,3.335V452.818c0,1.361.694,2.205,1.7,2.205a1.355,1.355,0,0,0,.408,0h0a1.279,1.279,0,0,0,.354-.163Z" transform="translate(-95.861 33.095)"/>
      <path id="Path_990" data-name="Path 990" class="cls-6" d="M101.642,205.505,95.87,202.17V257.1l5.772,3.362Z" transform="translate(-95.865 33.095)"/>
      <path id="Path_991" data-name="Path 991" class="cls-8" d="M101.642,205.505,95.87,202.17V257.1l5.772,3.362Z" transform="translate(-95.865 33.095)"/>
      <path id="Path_992" data-name="Path 992" class="cls-9" d="M102.528,176.565a6.33,6.33,0,0,0-.885,3.022v36.375l-5.772-3.335V176.266a3.326,3.326,0,0,1,0-.368,6.811,6.811,0,0,1,.123-.762,7.854,7.854,0,0,1,.762-1.906Z" transform="translate(-95.866 22.638)"/>
      <path id="Path_993" data-name="Path 993" class="cls-3" d="M439.993,34.331V50.749L195.349,191.987c-1.688.98-3.063.177-3.063-1.77V184c0-1.947-1.361-2.723-3.077-1.77L114.7,225.258a6.807,6.807,0,0,0-3.077,5.323v6.208a6.807,6.807,0,0,1-3.063,5.323l-8.454,4.928V230.7a6.807,6.807,0,0,1,3.063-5.323L436.93,32.562C438.618,31.582,439.993,32.371,439.993,34.331Z" transform="translate(-94.333 -28.342)"/>
      <path id="Path_994" data-name="Path 994" class="cls-6" d="M440.007,313.093a6.807,6.807,0,0,1-3.077,5.309L103.173,511.1c-1.688.967-3.063.177-3.063-1.783V242.1l8.454-4.874c1.688-.98,4.438-15.873,6.14-16.853l73.253-42.3c1.7-.98,5.7,10.019,7.392,9.039L439.993,45.81V313.093Z" transform="translate(-94.333 -23.403)"/>
      <path id="Path_995" data-name="Path 995" class="cls-10" d="M440.007,313.093a6.807,6.807,0,0,1-3.077,5.309L103.173,511.1c-1.688.967-3.063.177-3.063-1.783V242.1l8.454-4.874c1.688-.98,4.438-15.873,6.14-16.853l73.253-42.3c1.7-.98,5.7,10.019,7.392,9.039L439.993,45.81V313.093Z" transform="translate(-94.333 -23.403)"/>
      <g id="Group_86" data-name="Group 86" class="cls-11" transform="translate(5.777 22.407)">
        <path id="Path_996" data-name="Path 996" class="cls-6" d="M438.632,48.165V313.093a5.445,5.445,0,0,1-2.4,4.084L102.492,509.914a1.361,1.361,0,0,1-.694.231c-.313,0-.327-.681-.327-.83V242.822l7.773-4.492c1.2-.694,1.96-3.077,3.676-9.2a45.7,45.7,0,0,1,2.559-7.705l72.654-41.943a30.454,30.454,0,0,1,2.341,3.73c1.974,3.458,3.063,5.255,4.642,5.255a1.933,1.933,0,0,0,.912-.231l242.6-140.067m1.361-2.355L195.349,187.048a.477.477,0,0,1-.231,0c-1.715,0-5.2-9.162-6.929-9.162a.463.463,0,0,0-.231,0L114.7,220.319c-1.7.98-4.452,15.873-6.14,16.853L100.11,242.1V509.315c0,1.361.694,2.192,1.688,2.192a2.874,2.874,0,0,0,1.361-.408L436.93,318.4a6.807,6.807,0,0,0,3.077-5.309V45.81Z" transform="translate(-100.11 -45.81)"/>
      </g>
      <path id="Path_997" data-name="Path 997" class="cls-6" d="M100.11,256.7v54.957L439.993,115.45V60.48Z" transform="translate(-94.333 -18.102)"/>
      <path id="Path_998" data-name="Path 998" class="cls-12" d="M439.993,45.81V65.781L100.11,262V242.1l6.3-3.648c1.688-.98,2.26-2.478,3.063-5.323l2.151-7.433c.667-2.587,1.361-4.343,3.077-5.323l73.253-42.3c1.7-.98,3.036-1.089,4.329,1.048l2.627,4.765c.953,1.674,1.443,2.655,3.131,1.674Z" transform="translate(-94.333 -23.403)"/>
      <path id="Path_999" data-name="Path 999" class="cls-6" d="M340.223,41.449c2.137-1.225,3.866-.231,3.866,2.233a8.549,8.549,0,0,1-3.866,6.7c-2.124,1.225-3.853.231-3.853-2.233A8.576,8.576,0,0,1,340.223,41.449Z" transform="translate(-8.965 -25.168)"/>
      <path id="Path_1000" data-name="Path 1000" class="cls-6" d="M330.026,47.339c2.124-1.225,3.852-.231,3.852,2.233a8.576,8.576,0,0,1-3.852,6.7c-2.137,1.225-3.866.231-3.866-2.233a8.549,8.549,0,0,1,3.866-6.7Z" transform="translate(-12.654 -23.04)"/>
      <path id="Path_1001" data-name="Path 1001" class="cls-6" d="M319.8,53.229c2.124-1.225,3.866-.231,3.866,2.233a8.59,8.59,0,0,1-3.866,6.7c-2.137,1.239-3.866.231-3.866-2.233a8.549,8.549,0,0,1,3.866-6.7Z" transform="translate(-16.351 -20.911)"/>
      <path id="Path_1002" data-name="Path 1002" class="cls-13" d="M112.081,191.462l-4.819,2.723,1.838-3.526a.912.912,0,0,0,0-.871c-.136-.163-.381,0-.544.259l-2.614,5.037h0a1.064,1.064,0,0,0,0,.191h0a1.869,1.869,0,0,0,0,.259,1.077,1.077,0,0,0,0,.231h0a.3.3,0,0,0,0,.109h0l2.614,2.015a.245.245,0,0,0,.259,0,.994.994,0,0,0,.286-.381.881.881,0,0,0,0-.817l-1.838-1.361,4.819-2.723a1.021,1.021,0,0,0,.395-.83C112.476,191.462,112.3,191.353,112.081,191.462Z" transform="translate(-92.228 28.597)"/>
      <path id="Path_1003" data-name="Path 1003" class="cls-13" d="M113.512,190.712l4.819-2.723-1.838-1.361c-.163-.122-.177-.49,0-.817s.381-.5.545-.381l2.614,2.015h0a.272.272,0,0,1,.082.1h0a.558.558,0,0,1,0,.218.79.79,0,0,1,0,.259v.068a1.146,1.146,0,0,1-.082.191h0l-2.614,4.982a.722.722,0,0,1-.259.3.2.2,0,0,1-.286,0,.871.871,0,0,1,0-.871l1.838-3.539-4.819,2.791c-.218.123-.381,0-.381-.381a1.007,1.007,0,0,1,.381-.844Z" transform="translate(-89.629 27.032)"/>
      <path id="Path_1004" data-name="Path 1004" class="cls-13" d="M126.428,179.151c0-.286-.286-.245-.408.068l-.667,1.62c-1.13-.123-2.491.967-3.417,2.927-1.184,2.518-1.184,5.445,0,6.657a1.715,1.715,0,0,0,2.178.136,5.935,5.935,0,0,0,2.165-2.627.83.83,0,0,0,0-.844c-.163-.15-.408,0-.558.313-.885,1.879-2.341,2.723-3.226,1.865s-.9-3.09,0-4.982c.626-1.361,1.538-2.137,2.341-2.178l-.5,1.212c-.123.313,0,.613.191.476l1.974-1.28a.667.667,0,0,0,.218-.545Z" transform="translate(-86.768 24.708)"/>
      <path id="Path_1005" data-name="Path 1005" class="cls-13" d="M164,150.937l1.756-3.73a1.143,1.143,0,0,0,0-1.157c-.2-.191-.544,0-.749.436L163.25,150.2l-1.77-1.688c-.2-.2-.545,0-.749.436a1.144,1.144,0,0,0,0,1.157l1.756,1.688-1.756,3.744a1.143,1.143,0,0,0,0,1.157.3.3,0,0,0,.381,0,.9.9,0,0,0,.368-.449l1.77-3.73,1.756,1.7a.286.286,0,0,0,.368,0,.994.994,0,0,0,.381-.449,1.144,1.144,0,0,0,0-1.157Z" transform="translate(-72.485 12.79)"/>
      <path id="Path_1006" data-name="Path 1006" class="cls-4" d="M129.73,227.9V221.7a6.807,6.807,0,0,1,3.09-5.309L408.966,57.112c1.7-.98,3.077-.191,3.077,1.77v6.126a6.807,6.807,0,0,1-3.077,5.323L132.82,229.687C131.1,230.668,129.73,229.864,129.73,227.9Z" transform="translate(-83.63 -19.471)"/>
      <path id="Path_1007" data-name="Path 1007" class="cls-2" d="M332.244,69.869a.558.558,0,0,1-.218,0,.721.721,0,0,1-.381-.8l.3-2.573h0l-1.252-.9a.667.667,0,0,1-.272-.572,1.28,1.28,0,0,1,.463-.98l1.8-1.361a.408.408,0,0,0,.123-.2l.8-2.641a1.034,1.034,0,0,1,.8-.776.626.626,0,0,1,.585.354h0l.721,1.552,1.634-.626a.6.6,0,0,1,.681.15,1.007,1.007,0,0,1,0,1.1l-1.361,2.45a.56.56,0,0,0,0,.218l.313,2.219a1.225,1.225,0,0,1-.354.994.694.694,0,0,1-.6.245l-1.62-.2-1.566,2.1A.79.79,0,0,1,332.244,69.869Zm-1.035-5,1.252.9a.762.762,0,0,1,.259.735l-.15,2.124,1.361-1.715a.8.8,0,0,1,.694-.34l1.62.2a.5.5,0,0,0,0-.327l-.313-2.219a1.239,1.239,0,0,1,.15-.708l1.361-2.45-1.5.572a.585.585,0,0,1-.776-.313l-.667-1.361h0l-.8,2.641a1.171,1.171,0,0,1-.408.613l-1.8,1.361a.571.571,0,0,0-.286.286Z" transform="translate(-11.115 -18.615)"/>
      <g id="Group_87" data-name="Group 87" class="cls-14" transform="translate(330.933 29.681)">
        <path id="Path_1008" data-name="Path 1008" class="cls-5" d="M340.035,58.269a1.062,1.062,0,0,1-.531-1.988l8.631-4.982a1.065,1.065,0,1,1,1.075,1.838l-8.644,5a1.062,1.062,0,0,1-.531.136Z" transform="translate(-338.962 -51.153)"/>
        <path id="Path_1009" data-name="Path 1009" class="cls-5" d="M340.034,61.93a1.075,1.075,0,0,1-.926-.531,1.062,1.062,0,0,1,.395-1.457l8.631-5a1.075,1.075,0,0,1,1.075,1.851l-8.644,4.982a1.076,1.076,0,0,1-.531.15Z" transform="translate(-338.961 -49.818)"/>
        <path id="Path_1010" data-name="Path 1010" class="cls-5" d="M340.034,65.6a1.075,1.075,0,0,1-.926-.531,1.048,1.048,0,0,1,.395-1.443l8.631-5a1.065,1.065,0,1,1,1.075,1.838l-8.644,5A1.061,1.061,0,0,1,340.034,65.6Z" transform="translate(-338.961 -48.504)"/>
      </g>
      <path id="Path_1011" data-name="Path 1011" class="cls-2" d="M101.642,190.832V210.8l-5.772-3.335V187.51Z" transform="translate(-95.865 27.798)"/>
      <path id="Path_1012" data-name="Path 1012" class="cls-15" d="M111.012,268.916l94-54.276V367.885L110.74,422.011Z" transform="translate(-90.492 37.601)"/>
      <path id="Path_1013" data-name="Path 1013" class="cls-16" d="M196.3,225.466,309.7,160c2.287-1.361,4.084-.327,4.084,2.219a9.039,9.039,0,0,1-4.084,7.024l-113.412,66.2c-2.273,1.361-4.084.272-4.084-2.355v-.476A9.148,9.148,0,0,1,196.3,225.466Z" transform="translate(-61.058 17.64)"/>
      <path id="Path_1014" data-name="Path 1014" class="cls-15" d="M195.12,251.368,382.766,143.033c1.634-.939,2.954-.272,2.954,1.484a6.316,6.316,0,0,1-2.954,4.9L195.12,257.752c-1.62.939-2.94.272-2.94-1.484A6.33,6.33,0,0,1,195.12,251.368Z" transform="translate(-61.065 11.573)"/>
      <path id="Path_1015" data-name="Path 1015" class="cls-15" d="M195.12,260.788,382.766,152.453c1.634-.939,2.954-.272,2.954,1.484a6.317,6.317,0,0,1-2.954,4.9L195.12,267.172c-1.62.939-2.94.272-2.94-1.5A6.33,6.33,0,0,1,195.12,260.788Z" transform="translate(-61.065 14.977)"/>
      <path id="Path_1016" data-name="Path 1016" class="cls-15" d="M195.12,270.2,382.766,161.863c1.634-.939,2.954-.272,2.954,1.5a6.317,6.317,0,0,1-2.954,4.887L195.12,276.555c-1.62.939-2.94.272-2.94-1.5a6.357,6.357,0,0,1,2.94-4.86Z" transform="translate(-61.065 18.377)"/>
      <path id="Path_1017" data-name="Path 1017" class="cls-15" d="M195.12,279.618,382.766,171.283c1.634-.939,2.954-.272,2.954,1.484a6.316,6.316,0,0,1-2.954,4.9L195.12,286c-1.62.939-2.94.272-2.94-1.484A6.33,6.33,0,0,1,195.12,279.618Z" transform="translate(-61.065 21.781)"/>
      <path id="Path_1018" data-name="Path 1018" class="cls-15" d="M195.12,280.517l130.933-76.234c1.62-.939,2.94-.272,2.94,1.5a6.33,6.33,0,0,1-2.94,4.887L195.12,286.9c-1.62.939-2.94.272-2.94-1.5A6.33,6.33,0,0,1,195.12,280.517Z" transform="translate(-61.065 33.705)"/>
      <path id="Path_1019" data-name="Path 1019" class="cls-15" d="M195.12,307.868,382.766,199.533c1.634-.939,2.954-.272,2.954,1.484a6.316,6.316,0,0,1-2.954,4.9L195.12,314.252c-1.62.939-2.94.272-2.94-1.484A6.33,6.33,0,0,1,195.12,307.868Z" transform="translate(-61.065 31.988)"/>
      <path id="Path_1020" data-name="Path 1020" class="cls-15" d="M195.12,317.288,382.766,208.953c1.634-.939,2.954-.272,2.954,1.484a6.317,6.317,0,0,1-2.954,4.9L195.12,323.672c-1.62.939-2.94.272-2.94-1.5A6.33,6.33,0,0,1,195.12,317.288Z" transform="translate(-61.065 35.392)"/>
      <path id="Path_1021" data-name="Path 1021" class="cls-15" d="M195.12,326.7,382.766,218.363c1.634-.939,2.954-.272,2.954,1.5a6.317,6.317,0,0,1-2.954,4.887L195.12,333.1c-1.62.939-2.94.272-2.94-1.5A6.357,6.357,0,0,1,195.12,326.7Z" transform="translate(-61.065 38.792)"/>
      <path id="Path_1022" data-name="Path 1022" class="cls-15" d="M195.117,318.044,264.082,277.8c1.62-.939,2.94-.272,2.94,1.5a6.33,6.33,0,0,1-2.941,4.887L195.13,324.428c-1.62.939-2.94.272-2.94-1.484a6.33,6.33,0,0,1,2.927-4.9Z" transform="translate(-61.062 60.27)"/>
    </g>
    <g id="freepik--character-3--inject-4" transform="translate(470.476 196.309)">
      <path id="Path_1023" data-name="Path 1023" class="cls-17" d="M388.53,269.207c9.979-32.372,19.685-53.7,9.788-60.307h0c-9.2,1.715-13.327,6.276-15.288,18.419-2.056,12.728-6.33,30.48-8.821,40.717a121.17,121.17,0,0,1-9.189,24.735,5.241,5.241,0,0,1-2.723,2.382c-3.077,1.212-4.547,2.723-7.052,4.574-1.974,1.361-3.417,1.552-3.322,2.137A2.587,2.587,0,0,0,355,303.771a18.691,18.691,0,0,0,4.288-1.361,21.387,21.387,0,0,1-5.364,7.841c-4.833,4.084-4.084,8.073,3.662,8.536,2.723.163,9.216-2.369,15.192-12.538a101.384,101.384,0,0,0,5.323-11.721C382.268,284.1,386.529,275.741,388.53,269.207Z" transform="translate(-350.893 -131.432)"/>
      <path id="Path_1024" data-name="Path 1024" class="cls-6" d="M392.947,208.622s-7.678-.395-12.334,4.737-10.074,35.789-10.074,35.789,5.091,7,18.514,4.084Z" transform="translate(-343.794 -131.535)"/>
      <path id="Path_1025" data-name="Path 1025" class="cls-18" d="M392.947,208.622s-7.678-.395-12.334,4.737-10.074,35.789-10.074,35.789,5.091,7,18.514,4.084Z" transform="translate(-343.794 -131.535)"/>
      <rect id="Rectangle_51" data-name="Rectangle 51" class="cls-17" width="10.305" height="18.378" transform="translate(74.801 294.573)"/>
      <path id="Path_1026" data-name="Path 1026" class="cls-17" d="M390.033,372.82l-10.305.381-.517-19.453,10.823-.368Z" transform="translate(-340.661 -79.227)"/>
      <path id="Path_1027" data-name="Path 1027" class="cls-3" d="M428.927,251.533c0,10.251-1.511,92.747-1.511,92.747.231,2.954,2.886,8.4,2.314,19.726-.776,15.383-1.824,55.814-1.824,55.814a13.082,13.082,0,0,1-11.476.245s-9.747-56.019-11.585-71.279c-1.62-13.3-4.356-58.115-4.356-58.115l-5.581,52.1a63.982,63.982,0,0,1,1.28,17.071c-.49,7.052-3.8,43.794-3.8,43.794a13.613,13.613,0,0,1-11.9.939s-5.867-55.325-5.99-61.8c-.136-7.378,3.431-91.359,3.431-91.359Z" transform="translate(-342.364 -116.072)"/>
      <path id="Path_1028" data-name="Path 1028" class="cls-9" d="M410.167,378.411v-1.538c-.994.449-3.281,9.529-7.365,13.45-3.254,3.077-7.692,6.643-8.822,10.087s6.18,5.568,9.216,5.01c3.526-.653,9.652-3.24,11.176-5.649s2.26-5.935,3.512-7.692,4.084-3.716,4.792-5.758c.381-1.116,0-3.567-.585-5.636s-.994-3.989-1.62-3.812v1.171a7.924,7.924,0,0,1-5.146,1.824C413.816,379.909,410.154,379.6,410.167,378.411Z" transform="translate(-335.366 -70.743)"/>
      <path id="Path_1029" data-name="Path 1029" class="cls-9" d="M386.014,365.682c-.531,0-.966.8-2.151,2.137a22.626,22.626,0,0,1-6.058,4.547c-3.866,2.015-11.367,5.1-14.77,6.7-2.11.994-2.015,3.662.177,5.187s7.487,2.614,13.845,1.13c3.458-.8,7.977-4.084,10.823-3.961s8.168.15,10.305-1.361,1.266-4.737.667-7.515c-.653-3.022-1.457-7.746-2.423-7.542v1.048c-1.239,1.947-7.637,2.723-10.36,1.361Z" transform="translate(-347.057 -75.03)"/>
      <path id="Path_1030" data-name="Path 1030" class="cls-9" d="M397.4,282.536a37.777,37.777,0,0,1-14.348-8.576s2.723,5.445,11,10.428l-1.756,46.53Z" transform="translate(-339.273 -107.924)"/>
      <path id="Path_1031" data-name="Path 1031" class="cls-6" d="M423.009,211.139s8.059.749,7.487,16.1l-1.783,24.5V288.5c-7.583,8.59-41.18,7.95-52.683-.694,0,0,1.293-43.467,2.069-60.2.558-11.884,3.294-17.874,14.975-19.181l14.362.626Z" transform="translate(-341.81 -131.602)"/>
      <path id="Path_1032" data-name="Path 1032" class="cls-18" d="M395.343,216.34l-1.851,12.905-4.3-.082,4.86.776Z" transform="translate(-337.055 -128.744)"/>
      <path id="Path_1033" data-name="Path 1033" class="cls-9" d="M409.769,189.242a15.683,15.683,0,0,1-15.342,16c-8.481,0-14.975-7.174-15.356-15.982-.667-15.614,6.875-16,15.356-16A15.683,15.683,0,0,1,409.769,189.242Z" transform="translate(-340.726 -144.31)"/>
      <path id="Path_1034" data-name="Path 1034" class="cls-9" d="M409.64,190.81s-2.355,11.517-3.294,13.409a4.982,4.982,0,0,1-2.886,2.423l.163-8.1Z" transform="translate(-331.899 -137.968)"/>
      <path id="Path_1035" data-name="Path 1035" class="cls-9" d="M406.25,178.7s1.688-.422,3.485,2.382c1.538,2.4,1.892,7.787-.531,14.117l-4.424.531Z" transform="translate(-331.422 -142.354)"/>
      <path id="Path_1036" data-name="Path 1036" class="cls-17" d="M412.193,197.6c.885.558,2.151-1.225,3.254-2.423s4.669-2.818,6.466,1.089-1.579,9.271-4.4,10.2c-4.86,1.593-5.581-1.661-5.581-1.661l-.381,18.242c-6.439,9.979-21.046,9.611-15.791-.476v-5.554a29.667,29.667,0,0,1-6.548.354c-3.567-.585-5.813-3.512-6.9-7.542-1.743-6.466-2.4-11.68-.926-24.409,1.634-13.954,17.207-14.076,25.634-8.508S412.193,197.6,412.193,197.6Z" transform="translate(-340.168 -144.232)"/>
      <path id="Path_1037" data-name="Path 1037" class="cls-9" d="M407.09,207.775a23.345,23.345,0,0,1-6.3,7.909,17.806,17.806,0,0,1-7.637,3.24,16.92,16.92,0,0,1,5.445,6.058c1.62,3.539,12.96-6.221,12.851-13.15,0,0-1.77-6.956-4.22-7.392Z" transform="translate(-335.624 -133.044)"/>
      <path id="Path_1038" data-name="Path 1038" class="cls-9" d="M395.2,218.556s-3.5-1.729-1.933-7.542V205.46l-1.538.2a13.517,13.517,0,0,0-3.676,6.385c-.354,1.593-1.225,9.652.313,11.245S392.053,218.992,395.2,218.556Z" transform="translate(-337.672 -132.675)"/>
      <path id="Path_1039" data-name="Path 1039" class="cls-9" d="M407.4,183.844a2.232,2.232,0,0,1,1.2.068c1.361.6,1.606,4.71,1.838,5.895.776,3.989,1.429,10.755,2.927,10.782.449,0,2.151-2.927,3.254-3.975,1.538-1.457-.449-14.607-.449-14.607a6.412,6.412,0,0,0-1.47-6.657c-2.723-3.158-7.106-3.866-11.068-4.084-4.669-.259-9.407.1-14.008-.926a37.135,37.135,0,0,0-4.4-.939.5.5,0,0,0-.395,0c-.15.122-.122.354-.082.545a14.62,14.62,0,0,0,1.443,3.948,35.4,35.4,0,0,1-8.059-1.593.776.776,0,0,0-.463,0c-.313.1-.368.5-.34.83.177,3.294,1.742,8.277,4.424,10.21a15.465,15.465,0,0,0,7.977,2.518C396.948,186.131,401.386,184.607,407.4,183.844Z" transform="translate(-341.342 -145.719)"/>
      <path id="Path_1040" data-name="Path 1040" class="cls-9" d="M405.947,180.458l5.377-3.009a2.913,2.913,0,0,0-4.084-1.361,3.417,3.417,0,0,0-1.293,4.37Z" transform="translate(-331.119 -143.422)"/>
      <path id="Path_1041" data-name="Path 1041" class="cls-19" d="M391.74,207.368s7.964-1.674,10.754-3.213a9.421,9.421,0,0,0,3.853-3.975,13.22,13.22,0,0,1-2.192,4.683c-2.028,2.723-12.415,4.71-12.415,4.71Z" transform="translate(-336.133 -134.583)"/>
      <path id="Path_1042" data-name="Path 1042" class="cls-9" d="M393.151,190.142a1.593,1.593,0,1,0,1.593-1.743,1.647,1.647,0,0,0-1.593,1.743Z" transform="translate(-335.625 -138.839)"/>
      <path id="Path_1043" data-name="Path 1043" class="cls-9" d="M395,184.922l3.417,1.96a2.178,2.178,0,0,0-.694-2.8,1.865,1.865,0,0,0-2.723.844Z" transform="translate(-334.956 -140.507)"/>
      <path id="Path_1044" data-name="Path 1044" class="cls-19" d="M393.238,198.12l-3.648,1.361a1.906,1.906,0,0,0,2.478,1.266,2.151,2.151,0,0,0,1.171-2.627Z" transform="translate(-336.91 -135.327)"/>
      <path id="Path_1045" data-name="Path 1045" class="cls-9" d="M382.482,186.58l3.118-2.5a1.838,1.838,0,0,0-2.723-.422A2.205,2.205,0,0,0,382.482,186.58Z" transform="translate(-339.617 -140.708)"/>
      <path id="Path_1046" data-name="Path 1046" class="cls-9" d="M383.39,189.793a1.647,1.647,0,0,0,1.593,1.715,1.729,1.729,0,1,0,0-3.458,1.688,1.688,0,0,0-1.593,1.743Z" transform="translate(-339.151 -138.966)"/>
      <path id="Path_1047" data-name="Path 1047" class="cls-19" d="M391.242,188.35l-.191,10.087-5.731-1.32Z" transform="translate(-338.453 -138.857)"/>
      <path id="Path_1048" data-name="Path 1048" class="cls-6" d="M422.379,196c2.3-3.049,6.956,3.716,9.107,8.386s2.192,7.31.422,9.162-5.105.735-8.44-3.689S421.059,198.249,422.379,196Z" transform="translate(-325.497 -136.368)"/>
      <path id="Path_1049" data-name="Path 1049" class="cls-20" d="M422.379,196c2.3-3.049,6.956,3.716,9.107,8.386s2.192,7.31.422,9.162-5.105.735-8.44-3.689S421.059,198.249,422.379,196Z" transform="translate(-325.497 -136.368)"/>
      <path id="Path_1050" data-name="Path 1050" class="cls-17" d="M442.9,212.527c-8.168,19.059-19.535,29.8-24.64,42.065-6.684-.449-11.9-16.608-6.915-23.51,0,0,19.576-21.2,21.346-29.527,1.579-7.392,3.689-19.59,3.512-25.865a4.342,4.342,0,0,0-1.212-2.723c-2.056-2.219-2.056-3.989-3.376-6.425-1.021-1.906-2.151-2.614-1.824-3.049a2.464,2.464,0,0,1,3.335-.245,13.016,13.016,0,0,1,2.518,2.423,13.967,13.967,0,0,0-1.157-7.161c-2.273-5.146-1.715-7.76,5.214-5.935,4.356,1.157,7.079,4.778,7.732,15.22a103.282,103.282,0,0,1,.082,13.055c-.762,8.045-1.239,16.431-2.233,23.143A34.958,34.958,0,0,1,442.9,212.527Z" transform="translate(-329.764 -151.994)"/>
      <path id="Path_1051" data-name="Path 1051" class="cls-6" d="M409.664,215.5l17.262-19.739s-2.056,4.805,2.437,11.816,7.161,5.786,7.161,5.786-10.2,14.879-12.919,19.862-5.568,9.189-5.568,9.189a3.281,3.281,0,0,1-3.226,1.756C412.277,244.169,405.566,232.924,409.664,215.5Z" transform="translate(-330.125 -136.18)"/>
      <path id="Path_1052" data-name="Path 1052" class="cls-18" d="M409.664,215.5l17.262-19.739s-2.056,4.805,2.437,11.816,7.161,5.786,7.161,5.786-10.2,14.879-12.919,19.862-5.568,9.189-5.568,9.189a3.281,3.281,0,0,1-3.226,1.756C412.277,244.169,405.566,232.924,409.664,215.5Z" transform="translate(-330.125 -136.18)"/>
    </g>
    <g id="freepik--character-2--inject-4" transform="translate(319.503 242.561)">
      <path id="Path_1053" data-name="Path 1053" class="cls-19" d="M309.571,242.85l8.127,10.823-8.74,10.006L297.7,250.514Z" transform="translate(-219.14 -165.417)"/>
      <path id="Path_1054" data-name="Path 1054" class="cls-5" d="M286.87,224.77c7.093.327,10.469,1.361,14.185,5.8s22.285,31.27,22.285,31.27-3.281,9.2-10.469,8.413l-13.055-13.464Z" transform="translate(-223.053 -171.95)"/>
      <path id="Path_1055" data-name="Path 1055" class="cls-9" d="M261.842,389.89a52.674,52.674,0,0,0-.817,8.549c-.1,5.173-1.048,7.025-1.171,11.272-.15,4.86.694,6.684,2.723,9.407s7.147,5.214,9.339.6,1.906-7.637,1.2-12.415-.817-7.651-1.225-11.408c-.381-3.322-.817-5.84-.817-5.84Z" transform="translate(-232.821 -112.287)"/>
      <path id="Path_1056" data-name="Path 1056" class="cls-21" d="M276.655,360.083l-17.085-.313c.259,11.408,2.069,30.385,2.369,41.071,0,2.015,0,15.642.708,19.794,1.144,6.221,8.522,5.377,8.917,1.661s-.476-19.644-.449-21.291c-.068-6.807,3.145-24.749,4.833-37.069C276.028,363.269,276.573,360.6,276.655,360.083Z" transform="translate(-232.918 -123.171)"/>
      <path id="Path_1057" data-name="Path 1057" class="cls-9" d="M291.146,383.38s-.871,0-1.021.762-.2,2.205-.558,3.621a20.421,20.421,0,0,0-.6,6.807c.286,1.593,3.921,3.961,6.412,4.384s5.99,2.872,7.937,4.71a19.059,19.059,0,0,0,11.04,4.329c4.084,0,7.038-1.361,8.4-3.594s-1.239-2.491-5.976-5.568l-3.689-2.4c-7.5-4.9-10.251-7.528-12.375-12.429Z" transform="translate(-222.319 -114.64)"/>
      <path id="Path_1058" data-name="Path 1058" class="cls-21" d="M301.074,389.261c-.122-3.539,1.674-29.541,1.674-29.541l-14.689,1.661c3.485,20.719,3.757,27.785,3.362,30.807h0a2.938,2.938,0,0,0-.1.858c0,4.084,4.56,6.208,8.168,8.889,1.361,1.062,5,4.329,9.216,5.758,2.723.939,7.773,1.361,8.413-.368-4.3-3.294-10.183-7.6-13.613-11.367C301.823,394.134,301.2,392.773,301.074,389.261Z" transform="translate(-222.623 -123.189)"/>
      <path id="Path_1059" data-name="Path 1059" class="cls-6" d="M263.728,274.039c-8,17.507.3,79.148.3,79.148-.245,2.845-3.5,8.427-4.7,20.937-1.429,14.757,2.627,54.3,2.627,54.3a9.529,9.529,0,0,0,9.529.2s10.333-58.1,12.252-72.777c1.62-12.824,4.724-41,4.724-41l8.821,40.922a76.013,76.013,0,0,0-2.8,12.66c-.83,8.631,7.583,51.989,7.583,51.989a11.912,11.912,0,0,0,9.529-.191s3.716-56.005,4.506-66.406c1.361-17.48-3.335-72-6.534-82.347Z" transform="translate(-233.114 -155.072)"/>
      <path id="Path_1060" data-name="Path 1060" class="cls-20" d="M263.728,274.039c-8,17.507.3,79.148.3,79.148-.245,2.845-3.5,8.427-4.7,20.937-1.429,14.757,2.627,54.3,2.627,54.3a9.529,9.529,0,0,0,9.529.2s10.333-58.1,12.252-72.777c1.62-12.824,4.724-41,4.724-41l8.821,40.922a76.013,76.013,0,0,0-2.8,12.66c-.83,8.631,7.583,51.989,7.583,51.989a11.912,11.912,0,0,0,9.529-.191s3.716-56.005,4.506-66.406c1.361-17.48-3.335-72-6.534-82.347Z" transform="translate(-233.114 -155.072)"/>
      <path id="Path_1061" data-name="Path 1061" class="cls-22" d="M280.63,309.5l2.6-16.254s11-2.273,16-6.97a28.424,28.424,0,0,1-13.014,8.644l-2.927,12.524,5.119,37.886Z" transform="translate(-225.308 -149.725)"/>
      <path id="Path_1062" data-name="Path 1062" class="cls-6" d="M265.5,238.9l10.891,2.832V218.68h0c-6.017-1.566-10.891,1.906-10.891,7.76Z" transform="translate(-230.775 -174.286)"/>
      <path id="Path_1063" data-name="Path 1063" class="cls-23" d="M265.5,238.9l10.891,2.832V218.68h0c-6.017-1.566-10.891,1.906-10.891,7.76Z" transform="translate(-230.775 -174.286)"/>
      <path id="Path_1064" data-name="Path 1064" class="cls-6" d="M287.983,233.657l-3.907-.082c-11.925-.286-21.373-10.564-21.114-22.979h0c0-13.532,10.482-24.5,23.469-24.626h0c12.987-.068,23.578,10.891,23.646,24.368V211.7C309.75,224.128,299.881,233.916,287.983,233.657Z" transform="translate(-231.694 -185.97)"/>
      <path id="Path_1065" data-name="Path 1065" class="cls-23" d="M287.983,233.657l-3.907-.082c-11.925-.286-21.373-10.564-21.114-22.979h0c0-13.532,10.482-24.5,23.469-24.626h0c12.987-.068,23.578,10.891,23.646,24.368V211.7C309.75,224.128,299.881,233.916,287.983,233.657Z" transform="translate(-231.694 -185.97)"/>
      <path id="Path_1066" data-name="Path 1066" class="cls-6" d="M269.946,190.721a2.954,2.954,0,0,0-3.771-2.124l1.048,4.084a2.723,2.723,0,0,0-.79-.681,2.9,2.9,0,0,0-4.084,1.361l5.309,3.117a3.226,3.226,0,0,0,.354-1.729A3.363,3.363,0,0,0,269.946,190.721Z" transform="translate(-231.913 -185.071)"/>
      <path id="Path_1067" data-name="Path 1067" class="cls-23" d="M269.946,190.721a2.954,2.954,0,0,0-3.771-2.124l1.048,4.084a2.723,2.723,0,0,0-.79-.681,2.9,2.9,0,0,0-4.084,1.361l5.309,3.117a3.226,3.226,0,0,0,.354-1.729A3.363,3.363,0,0,0,269.946,190.721Z" transform="translate(-231.913 -185.071)"/>
      <path id="Path_1068" data-name="Path 1068" class="cls-3" d="M277.007,225.821a100.208,100.208,0,0,0-10.891,2.1c4.22,10.346-2.4,26.328-2.4,26.328l6.248,19.236c-4.315,8.835-7.868,13.218-9.339,20.42,3.975,7.76,32.032,15.165,50.3,1.021,0,0-.585-19.644-2.913-31.093,5.976-11.667,5.01-15.1,3.785-19.168-2.845-9.461-8.59-13.1-15.437-19.766l-4.084-.436Z" transform="translate(-232.535 -172.062)"/>
      <path id="Path_1069" data-name="Path 1069" class="cls-9" d="M270.667,278.52c3.39-3.471,10.578-4.465,10.578-4.465l-6.6-3.757-7.378-17.82a40.84,40.84,0,0,0,4.452-19.617l-4.247-1.021c.517,9.434-3.757,19.753-3.757,19.753l6.249,19.236c-4.315,8.835-7.868,13.219-9.339,20.42,2.723,5.309,16.731,10.455,31.161,8.631C272.45,298.572,267.413,281.882,270.667,278.52Z" transform="translate(-232.538 -169.396)"/>
      <path id="Path_1070" data-name="Path 1070" class="cls-24" d="M282.35,281.952l.79-.082a4.694,4.694,0,0,0-.79.082Z" transform="translate(-224.687 -151.318)"/>
      <path id="Path_1071" data-name="Path 1071" class="cls-21" d="M299.67,194.83c2.341,2.151,5.268,6.807,5.037,20.42-.2,11.571-3.784,14.444-5.6,15.274s-5.282.354-8.672-.218V235.1s4.465,4.955,4.193,8.168-6.371,4.506-10.768,1.361a41.152,41.152,0,0,1-8.168-8.236V221.839s-1.988,2.028-5.445-1.021c-2.723-2.532-3.757-6.807-1.593-9.121a4.765,4.765,0,0,1,7.746,1.566,44.216,44.216,0,0,0,14.92-4.3A14.77,14.77,0,0,0,299.67,194.83Z" transform="translate(-230.054 -182.768)"/>
      <path id="Path_1072" data-name="Path 1072" class="cls-9" d="M285.063,208.281a1.361,1.361,0,1,1-1.47-1.361A1.443,1.443,0,0,1,285.063,208.281Z" transform="translate(-224.69 -178.4)"/>
      <path id="Path_1073" data-name="Path 1073" class="cls-25" d="M284.752,215l3.635,1.184a1.865,1.865,0,0,1-2.355,1.361,2.1,2.1,0,0,1-1.28-2.546Z" transform="translate(-223.849 -175.48)"/>
      <path id="Path_1074" data-name="Path 1074" class="cls-9" d="M294.878,204.721l-3.308-1.13a1.62,1.62,0,0,1,2.11-1.157,1.933,1.933,0,0,1,1.2,2.287Z" transform="translate(-221.355 -180.053)"/>
      <path id="Path_1075" data-name="Path 1075" class="cls-6" d="M274.05,207.42v4.887a2.3,2.3,0,0,0,2.4-2.342A2.532,2.532,0,0,0,274.05,207.42Z" transform="translate(-227.686 -178.219)"/>
      <path id="Path_1076" data-name="Path 1076" class="cls-23" d="M274.05,207.42v4.887a2.3,2.3,0,0,0,2.4-2.342A2.532,2.532,0,0,0,274.05,207.42Z" transform="translate(-227.686 -178.219)"/>
      <path id="Path_1077" data-name="Path 1077" class="cls-9" d="M293.921,207.947a1.484,1.484,0,0,1-1.361,1.593,1.511,1.511,0,1,1,1.361-1.593Z" transform="translate(-221.596 -178.542)"/>
      <path id="Path_1078" data-name="Path 1078" class="cls-25" d="M287.427,206.12l-.027,9.475,4.411-1.457Z" transform="translate(-222.862 -178.689)"/>
      <path id="Path_1079" data-name="Path 1079" class="cls-25" d="M287.562,222.429c-3.58-.463-10.891-2.627-12.1-5.649a7.9,7.9,0,0,0,2.6,3.853c2.205,1.947,9.529,4.084,9.529,4.084Z" transform="translate(-227.176 -174.837)"/>
      <path id="Path_1080" data-name="Path 1080" class="cls-21" d="M255.765,261S264.5,273.415,266,275.035s2.532,1.075,4.152.354a45.959,45.959,0,0,1,6.072-1.974c2.723-.667,3.24,1.8.6,3.553-1.906,1.28-4.084,1.824-3.186,2.872a20.242,20.242,0,0,0,6.371,3.907c6.453,2.546,5.949,3.825,4.765,5.908-1.035,1.824-4.084,5.745-15.574,1.116-4.765-1.919-11.462-7.351-14.621-10.891-4.56-5.05-11.68-14.1-11.68-14.1Z" transform="translate(-238.941 -158.859)"/>
      <path id="Path_1081" data-name="Path 1081" class="cls-5" d="M275.248,226.67c-3.158.2-9.107.967-16.567,13.355-6.548,10.891-16.69,25.607-18.569,30.875-.762,2.137,2.205,6.562,6.031,11.095,5.214-.231,9.965-3.839,12.429-6.725a24.258,24.258,0,0,0-2.4-4.37l15.3-17.452s5.813-5.323,7.025-12.252C279.808,233.681,279.4,227.773,275.248,226.67Z" transform="translate(-239.992 -171.264)"/>
      <path id="Path_1082" data-name="Path 1082" class="cls-6" d="M341.589,243.93l-37.723,9.938L293.48,296.545l35.871-10.414Z" transform="translate(-220.665 -165.027)"/>
      <path id="Path_1083" data-name="Path 1083" class="cls-26" d="M341.589,243.93l-37.723,9.938L293.48,296.545l35.871-10.414Z" transform="translate(-220.665 -165.027)"/>
      <g id="Group_88" data-name="Group 88" class="cls-27" transform="translate(103.881 109.124)">
        <path id="Path_1084" data-name="Path 1084" d="M316.3,266.13a7.446,7.446,0,0,0,7.052,4.22l.272-.939Z" transform="translate(-316.3 -266.13)"/>
      </g>
      <g id="Group_89" data-name="Group 89" class="cls-27" transform="translate(93.494 83.632)">
        <path id="Path_1085" data-name="Path 1085" d="M324.734,249.454l.313-1.443c.177-.79-2.042-.83-4.942,0l-5.568,1.361c-2.9.762-5.445,2.015-5.568,2.8l-.3,1.443Z" transform="translate(-308.67 -247.404)"/>
      </g>
      <path id="Path_1086" data-name="Path 1086" class="cls-3" d="M327.814,245.457c.109-.5-.79-.64-2-.3l-2.205.613s.653-3.117-4.22-2.028a7.678,7.678,0,0,0-5.963,4.629l-2.341.667c-1.361.368-2.478,1.062-2.627,1.552l-.286.9,19.44-5.119Z" transform="translate(-215.357 -165.179)"/>
      <path id="Path_1087" data-name="Path 1087" class="cls-3" d="M324.037,246.219c-1.77.436-2.518.667-2.723,1.892s-.436,2.423-.436,2.423l-8.59,2.273s.422-1.77.558-2.45-.163-1.116-1.538-.749l-.109-.545,13.477-3.444Z" transform="translate(-214.262 -164.416)"/>
      <path id="Path_1088" data-name="Path 1088" class="cls-3" d="M325.114,249.544l.313-1.443c.177-.79-2.042-.83-4.942,0l-5.568,1.361c-2.9.762-5.445,2.015-5.568,2.8l-.3,1.443Z" transform="translate(-215.039 -163.739)"/>
      <path id="Path_1089" data-name="Path 1089" class="cls-21" d="M329.579,254.223s-1.361,4.833-1.729,5.976-4.56,3.226-7.324,3.989-5.813,1.661-4.492,5.541c1.2,3.58,5.772,4.4,8.086,4.288s5.513-2.314,6.807-5.895c1.593-4.574.735-9.448,1.361-12.116S330.968,252.631,329.579,254.223Z" transform="translate(-212.63 -161.612)"/>
    </g>
    <g id="freepik--character-1--inject-4" transform="translate(162.51 288.586)">
      <path id="Path_1090" data-name="Path 1090" class="cls-28" d="M240.8,255.628c-5.173-5.214-7.024-3.186-7.678,2.532a25.4,25.4,0,0,1-1.729,6.984,12.92,12.92,0,0,0-.967-3.444,2.518,2.518,0,0,0-3.077-1.511c-.5.2.122,1.361,0,3.635-.1,2.832-1.021,4.4-.354,7.406a4.86,4.86,0,0,1-.5,3.322c-2.723,5.173-11.694,14.73-17.983,21.618l-23.891-21.577c-8.168-7.351-10.809-10.659-18.691-10.128a21.318,21.318,0,0,1,6.7,4.084c3.662,3.09,2.791,20.774,2.791,20.774s27.118,19.44,29.949,21.291c.408.272.83.517,1.239.749a6.7,6.7,0,0,0,8.168-1.565c5.786-6.616,14.226-19.644,19.059-26.41a81.957,81.957,0,0,0,5.895-10.264C244.574,263.5,244.043,258.9,240.8,255.628Z" transform="translate(-109.76 -207.912)"/>
      <path id="Path_1091" data-name="Path 1091" class="cls-6" d="M166.55,261.058a13.613,13.613,0,0,1,10.891,2.723c4.656,3.539,24.5,21.781,24.5,21.781s.545,9.652-9.529,15.4l-24.327-17.153Z" transform="translate(-109.535 -204.942)"/>
      <path id="Path_1092" data-name="Path 1092" class="cls-18" d="M166.55,261.058a13.613,13.613,0,0,1,10.891,2.723c4.656,3.539,24.5,21.781,24.5,21.781s.545,9.652-9.529,15.4l-24.327-17.153Z" transform="translate(-109.535 -204.942)"/>
      <rect id="Rectangle_52" data-name="Rectangle 52" class="cls-28" width="10.305" height="18.378" transform="translate(23.226 273.874)"/>
      <path id="Path_1093" data-name="Path 1093" class="cls-28" d="M167.98,425.4l10.305.368.517-19.453-10.823-.367Z" transform="translate(-109.019 -152.509)"/>
      <path id="Path_1094" data-name="Path 1094" class="cls-3" d="M140.895,304.106c0,10.251,1.511,92.761,1.511,92.761-.231,2.94-2.886,8.386-2.314,19.712.776,15.4,1.824,55.814,1.824,55.814a13.109,13.109,0,0,0,11.476.231s9.747-56.019,11.6-71.266c1.606-13.314,4.343-58.129,4.343-58.129l5.581,52.112a63.874,63.874,0,0,0-1.28,17.057c.49,7.052,3.8,43.794,3.8,43.794a13.613,13.613,0,0,0,11.912.953s5.854-55.338,5.976-61.8c.136-7.378-3.431-91.372-3.431-91.372Z" transform="translate(-119.125 -189.358)"/>
      <path id="Path_1095" data-name="Path 1095" class="cls-9" d="M152.641,430.967v-1.525c.994.449,3.281,9.529,7.365,13.436,3.254,3.09,7.692,6.657,8.821,10.1s-6.18,5.554-9.216,5c-3.526-.653-9.652-3.24-11.177-5.636s-2.26-5.949-3.512-7.705-4.084-3.716-4.792-5.758a13.613,13.613,0,0,1,.585-5.636c.476-1.892.994-3.975,1.62-3.8v1.171a8,8,0,0,0,5.159,1.811C148.993,432.479,152.655,432.165,152.641,430.967Z" transform="translate(-119.109 -144.024)"/>
      <path id="Path_1096" data-name="Path 1096" class="cls-9" d="M179.24,418.266c.531,0,.967.8,2.151,2.137a22.6,22.6,0,0,0,6.058,4.533c3.866,2.015,11.367,5.119,14.77,6.711,2.124.994,2.015,3.662-.177,5.173s-7.487,2.614-13.845,1.143c-3.458-.817-7.977-4.084-10.891-3.961s-8.168.136-10.305-1.361-1.266-4.751-.667-7.515c.653-3.036,1.47-7.76,2.423-7.555v1.048c1.239,1.96,7.637,2.723,10.36,1.361Z" transform="translate(-109.864 -148.312)"/>
      <path id="Path_1097" data-name="Path 1097" class="cls-9" d="M161.55,335.106A37.778,37.778,0,0,0,175.9,326.53s-2.723,5.445-11,10.428l1.756,46.544Z" transform="translate(-111.342 -181.206)"/>
      <path id="Path_1098" data-name="Path 1098" class="cls-6" d="M146.6,263.719s-8.059.735-7.487,16.1l1.783,24.5-.163,36.756c7.569,8.59,41.18,7.964,52.683-.694,0,0-1.184-43.467-1.96-60.2-.558-11.884-3.294-17.874-14.975-19.181l-14.376.626Z" transform="translate(-119.462 -204.88)"/>
      <path id="Path_1099" data-name="Path 1099" class="cls-18" d="M161.43,268.92l1.851,12.905,4.315-.082-4.874.762Z" transform="translate(-111.385 -202.022)"/>
      <path id="Path_1100" data-name="Path 1100" class="cls-28" d="M126.222,315.642c4.179-33.625,13.8-50.369,25.525-52.3l-.83,21.509a189.905,189.905,0,0,0-11.163,35.6c-1.538,8.277-3.322,22.666-2.859,29.731a5.282,5.282,0,0,0,1.5,3.308c2.314,2.355,3.009,4.4,4.56,7.052,1.225,2.083,2.478,2.818,2.151,3.322a2.6,2.6,0,0,1-3.594.463,19.536,19.536,0,0,1-3.349-3.008,21.29,21.29,0,0,0,1.688,9.352c2.723,5.663,2.287,8.645-5.309,6.97-4.765-1.035-8.168-6.058-9.529-17.779a102.654,102.654,0,0,1-.231-13.15C125.3,335.5,125.392,322.367,126.222,315.642Z" transform="translate(-124.668 -204.038)"/>
      <path id="Path_1101" data-name="Path 1101" class="cls-6" d="M151.738,262.93c-6.085,0-11.639,1.048-16.064,9.529-4.234,8.168-7.487,25.443-9.134,31.093,0,0,8.889,5.255,17.071,5.119l5.758-19.984S153.263,279.361,151.738,262.93Z" transform="translate(-123.992 -204.187)"/>
      <path id="Path_1102" data-name="Path 1102" class="cls-18" d="M151.738,262.93c-6.085,0-11.639,1.048-16.064,9.529-4.234,8.168-7.487,25.443-9.134,31.093,0,0,8.889,5.255,17.071,5.119l5.758-19.984S153.263,279.361,151.738,262.93Z" transform="translate(-123.992 -204.187)"/>
      <path id="Path_1103" data-name="Path 1103" class="cls-9" d="M154.281,241.752a15.356,15.356,0,1,0,15.342-15.982A15.683,15.683,0,0,0,154.281,241.752Z" transform="translate(-113.97 -217.614)"/>
      <path id="Path_1104" data-name="Path 1104" class="cls-9" d="M147.11,243.38s2.355,11.517,3.294,13.409a5.037,5.037,0,0,0,2.9,2.437l-.177-8.168Z" transform="translate(-116.56 -211.251)"/>
      <path id="Path_1105" data-name="Path 1105" class="cls-9" d="M150.528,231.264s-1.742-.354-3.485,2.369c-1.538,2.4-1.879,7.787.531,14.117l4.424.531Z" transform="translate(-117.023 -215.634)"/>
      <path id="Path_1106" data-name="Path 1106" class="cls-28" d="M154.049,250.186c-.885.558-2.151-1.225-3.254-2.41s-4.669-2.832-6.453,1.089,1.566,9.271,4.383,10.183c4.86,1.593,5.581-1.661,5.581-1.661l.381,18.256c6.439,9.965,21.046,9.611,15.791-.49v-5.6a29.663,29.663,0,0,0,6.548.354c3.567-.572,5.813-3.512,6.9-7.542,1.742-6.466,2.4-11.68.926-24.395-1.62-13.94-17.18-14.09-25.593-8.576S154.049,250.186,154.049,250.186Z" transform="translate(-117.74 -217.526)"/>
      <path id="Path_1107" data-name="Path 1107" class="cls-9" d="M152.906,260.345a23.347,23.347,0,0,0,6.3,7.909,18.01,18.01,0,0,0,7.637,3.254,16.962,16.962,0,0,0-5.445,6.044c-1.606,3.553-12.96-6.208-12.851-13.137,0,0,1.783-6.956,4.22-7.406Z" transform="translate(-116.04 -206.326)"/>
      <path id="Path_1108" data-name="Path 1108" class="cls-9" d="M162,271.15s3.5-1.742,1.933-7.555V258l1.538.2a13.518,13.518,0,0,1,3.676,6.385c.354,1.593,1.225,9.652-.313,11.245S165.131,271.613,162,271.15Z" transform="translate(-111.179 -205.968)"/>
      <path id="Path_1109" data-name="Path 1109" class="cls-9" d="M152.359,254c-.449,0-2.151-2.927-3.254-3.975-1.538-1.457.449-14.621.449-14.621a6.453,6.453,0,0,1,1.47-6.657c2.11-2.41,5.622-2.723,11.612-3.648a62.7,62.7,0,0,0,7.106-1.293,41.745,41.745,0,0,0,7.106-3.458,3.567,3.567,0,0,1,2.4-.545,2.328,2.328,0,0,1,1.538,1.742,7.146,7.146,0,0,1,0,2.41,3.907,3.907,0,0,1,5.513.191,5.636,5.636,0,0,1,.871,5.826,10.428,10.428,0,0,1-4.084,4.588c-7.528,5.091-16.418,3.676-24.858,2.723a2.11,2.11,0,0,0-1.2.082c-1.361.6-1.606,4.7-1.838,5.881C154.509,247.2,153.856,253.977,152.359,254Z" transform="translate(-116.05 -219.779)"/>
      <path id="Path_1110" data-name="Path 1110" class="cls-9" d="M150.7,233.03l-5.364-3.009a2.9,2.9,0,0,1,4.084-1.361,3.417,3.417,0,0,1,1.28,4.37Z" transform="translate(-117.199 -216.705)"/>
      <path id="Path_1111" data-name="Path 1111" class="cls-29" d="M167.277,259.908s-7.964-1.674-10.754-3.213a9.339,9.339,0,0,1-3.853-3.975,13.218,13.218,0,0,0,2.192,4.683c2.028,2.723,12.415,4.724,12.415,4.724Z" transform="translate(-114.551 -207.876)"/>
      <path id="Path_1112" data-name="Path 1112" class="cls-9" d="M162.126,242.326a1.661,1.661,0,0,1-1.593,1.729,1.688,1.688,0,0,1-1.593-1.743,1.593,1.593,0,0,1,3.186,0Z" transform="translate(-112.285 -212.212)"/>
      <path id="Path_1113" data-name="Path 1113" class="cls-9" d="M160.239,237.114l-3.417,1.96a2.178,2.178,0,0,1,.79-2.832,1.879,1.879,0,0,1,2.627.871Z" transform="translate(-113.135 -213.915)"/>
      <path id="Path_1114" data-name="Path 1114" class="cls-29" d="M162.9,250.69l3.648,1.429a1.892,1.892,0,0,1-2.478,1.252A2.151,2.151,0,0,1,162.9,250.69Z" transform="translate(-110.897 -208.609)"/>
      <path id="Path_1115" data-name="Path 1115" class="cls-9" d="M173.954,239l-3.594-1.742a1.838,1.838,0,0,1,2.546-1.021A2.205,2.205,0,0,1,173.954,239Z" transform="translate(-108.159 -213.899)"/>
      <path id="Path_1116" data-name="Path 1116" class="cls-9" d="M172.121,242.355a1.606,1.606,0,1,1-3.2,0,1.647,1.647,0,0,1,1.593-1.715A1.674,1.674,0,0,1,172.121,242.355Z" transform="translate(-108.681 -212.241)"/>
      <path id="Path_1117" data-name="Path 1117" class="cls-29" d="M164.62,240.99l.177,10.087,5.731-1.307Z" transform="translate(-110.233 -212.114)"/>
      <path id="Path_1118" data-name="Path 1118" class="cls-9" d="M160.724,239.057a3.989,3.989,0,0,0,0,7.977h.722a3.989,3.989,0,0,0,0-7.977ZM156,243.045a4.765,4.765,0,0,1,4.71-4.805h.735a4.806,4.806,0,0,1,0,9.529h-.722A4.751,4.751,0,0,1,156,243.045Z" transform="translate(-113.348 -213.108)"/>
      <path id="Path_1119" data-name="Path 1119" class="cls-9" d="M171.25,239.057a3.989,3.989,0,1,0,0,7.977h.722a3.989,3.989,0,1,0,0-7.977Zm-4.71,3.989a4.765,4.765,0,0,1,4.71-4.805h.721a4.805,4.805,0,0,1,0,9.529h-.721a4.751,4.751,0,0,1-4.683-4.724Z" transform="translate(-109.539 -213.108)"/>
      <path id="Path_1120" data-name="Path 1120" class="cls-9" d="M163.6,241.632a3.117,3.117,0,0,1,2.491-1.293,2.518,2.518,0,0,1,2.165.844l.64-.49a3.213,3.213,0,0,0-2.845-1.157,3.839,3.839,0,0,0-3.131,1.674Z" transform="translate(-110.847 -212.647)"/>
      <rect id="Rectangle_53" data-name="Rectangle 53" class="cls-9" width="8.114" height="0.803" transform="translate(34.975 28.944)"/>
    </g>
  </g>
</svg>
