<svg xmlns="http://www.w3.org/2000/svg" xmlns:xlink="http://www.w3.org/1999/xlink" width="410" height="383" viewBox="0 0 410 383">
  <defs>
    <style>
      .cls-1 {
        fill: #fff;
      }

      .cls-2 {
        fill: #ffa29d;
      }

      .cls-3, .cls-4, .cls-5 {
        font-size: 20px;
        letter-spacing: 0.001em;
      }

      .cls-3 {
        font-family: Roboto-Medium, Roboto;
        font-weight: 500;
      }

      .cls-4, .cls-5 {
        font-family: Roboto-Regular, Roboto;
      }

      .cls-5, .cls-6 {
        fill: #0092ef;
      }

      .cls-7 {
        fill: #ff2d20;
        fill-rule: evenodd;
      }

      .cls-8 {
        filter: url(#Rectangle_8);
      }
    </style>
    <filter id="Rectangle_8" x="0" y="0" width="410" height="383" filterUnits="userSpaceOnUse">
      <feOffset dy="10" input="SourceAlpha"/>
      <feGaussianBlur stdDeviation="10" result="blur"/>
      <feFlood flood-color="#989898" flood-opacity="0.161"/>
      <feComposite operator="in" in2="blur"/>
      <feComposite in="SourceGraphic"/>
    </filter>
  </defs>
  <g id="Group_32" data-name="Group 32" transform="translate(-1136 -1449)">
    <g class="cls-8" transform="matrix(1, 0, 0, 1, 1136, 1449)">
      <rect id="Rectangle_8-2" data-name="Rectangle 8" class="cls-1" width="350" height="323" rx="10" transform="translate(30 20)"/>
    </g>
    <rect id="Rectangle_9" data-name="Rectangle 9" class="cls-2" width="350" height="220" rx="10" transform="translate(1166 1469)"/>
    <g id="Group_23" data-name="Group 23" transform="translate(762 4)">
      <text id="Laravel_Course" data-name="Laravel Course" class="cls-3" transform="translate(424 1724)"><tspan x="0" y="0">Laravel Course</tspan></text>
      <text id="_50000_Kyats" data-name="50000 Kyats" class="cls-4" transform="translate(479 1763)"><tspan x="-55.196" y="0">50000 Kyats</tspan></text>
      <text id="See_more_detail" data-name="See more detail" class="cls-5" transform="translate(643 1763)"><tspan x="-69.103" y="0">See more detail</tspan></text>
      <path id="Path_662" data-name="Path 662" class="cls-6" d="M9.682,25.517H22.236a.173.173,0,0,1,.121.3l-3.922,3.9a.184.184,0,0,0,0,.243l.89.89a.184.184,0,0,0,.243,0l4.67-4.67V31.1h1.617V18.3H24.238v4.913l-4.65-4.67a.184.184,0,0,0-.243,0l-.89.89a.184.184,0,0,0,0,.243l3.9,3.9a.173.173,0,0,1-.121.3H9.682a.181.181,0,0,0-.182.182v1.253A.187.187,0,0,0,9.682,25.517Z" transform="translate(708 1731.302)"/>
    </g>
    <path id="Logo.min" class="cls-7" d="M67.057,11.723V34.67h8.362v3.958H62.6v-26.9ZM91.135,23.138v-2.42h4.219v17.91h-4.22V36.206a5.8,5.8,0,0,1-2.42,2.114,7.1,7.1,0,0,1-3.154.768,9.23,9.23,0,0,1-3.755-.749,8.782,8.782,0,0,1-2.923-2.056,9.6,9.6,0,0,1-2.574-6.611,9.67,9.67,0,0,1,.678-3.594,9.508,9.508,0,0,1,1.9-3.016A8.79,8.79,0,0,1,81.805,21a9.214,9.214,0,0,1,3.755-.75,7.1,7.1,0,0,1,3.155.77,5.815,5.815,0,0,1,2.42,2.113Zm-.388,8.725a6.38,6.38,0,0,0,0-4.382,5.548,5.548,0,0,0-1.083-1.806,5.245,5.245,0,0,0-1.684-1.23,5.117,5.117,0,0,0-2.188-.461,4.983,4.983,0,0,0-2.168.461A5.218,5.218,0,0,0,80.9,27.481a6.7,6.7,0,0,0,0,4.381A5.216,5.216,0,0,0,83.624,34.9a4.969,4.969,0,0,0,2.168.461,5.113,5.113,0,0,0,2.188-.46,5.234,5.234,0,0,0,1.684-1.23,5.543,5.543,0,0,0,1.083-1.807Zm7.936,6.764V20.717h11.459v4.122H102.9V38.627Zm26.75-15.489v-2.42h4.219v17.91h-4.22V36.206a5.8,5.8,0,0,1-2.42,2.114,7.1,7.1,0,0,1-3.154.768,9.227,9.227,0,0,1-3.755-.749,8.782,8.782,0,0,1-2.923-2.056,9.6,9.6,0,0,1-2.574-6.611,9.65,9.65,0,0,1,.678-3.594,9.508,9.508,0,0,1,1.9-3.016A8.79,8.79,0,0,1,116.1,21a9.211,9.211,0,0,1,3.755-.75,7.1,7.1,0,0,1,3.155.77,5.821,5.821,0,0,1,2.42,2.113Zm-.388,8.725a6.4,6.4,0,0,0,0-4.382,5.548,5.548,0,0,0-1.084-1.806,5.245,5.245,0,0,0-1.684-1.23,5.109,5.109,0,0,0-2.187-.461,4.983,4.983,0,0,0-2.168.461,5.224,5.224,0,0,0-2.729,3.036,6.7,6.7,0,0,0,0,4.381,5.222,5.222,0,0,0,2.729,3.037,4.969,4.969,0,0,0,2.168.461,5.106,5.106,0,0,0,2.187-.46,5.234,5.234,0,0,0,1.684-1.23,5.543,5.543,0,0,0,1.084-1.807Zm21.523-11.146h4.274l-6.926,17.91h-5.3l-6.926-17.91h4.274l5.3,13.715Zm13.476-.46c5.746,0,9.664,5.055,8.928,10.972h-14a5.053,5.053,0,0,0,5.3,4.532c3.21,0,5.36-2.8,5.362-2.805l2.85,2.19c-2.548,2.7-4.635,3.943-7.9,3.943-5.84,0-9.8-3.668-9.8-9.416A9.3,9.3,0,0,1,160.044,20.257Zm-5.059,7.859H165.1a4.966,4.966,0,0,0-5.086-4.532A4.892,4.892,0,0,0,154.985,28.116ZM171.72,38.627v-26.9h4.22v26.9ZM49.764,11.513a.8.8,0,0,1,.028.208V22.645a.8.8,0,0,1-.4.691l-9.234,5.279V39.078a.8.8,0,0,1-.4.69L20.478,50.787a.811.811,0,0,1-.14.058c-.019.006-.036.017-.054.022a.812.812,0,0,1-.412,0c-.022-.006-.042-.018-.063-.026a.718.718,0,0,1-.132-.054L.4,39.77a.8.8,0,0,1-.4-.692V6.306A.8.8,0,0,1,.028,6.1a.672.672,0,0,1,.028-.067.9.9,0,0,1,.052-.124.763.763,0,0,1,.054-.07.834.834,0,0,1,.072-.094.781.781,0,0,1,.079-.06A.849.849,0,0,1,.4,5.616h0L10.04.106a.81.81,0,0,1,.8,0l9.638,5.509h0c.032.02.058.046.088.068a.768.768,0,0,1,.078.06.923.923,0,0,1,.072.093.748.748,0,0,1,.055.071.9.9,0,0,1,.052.124c.008.022.021.043.028.067a.8.8,0,0,1,.027.208V26.775l8.032-4.591V11.721a.8.8,0,0,1,.027-.208c.007-.024.02-.044.029-.067a.788.788,0,0,1,.051-.124.628.628,0,0,1,.055-.07.742.742,0,0,1,.072-.093.768.768,0,0,1,.078-.06.723.723,0,0,1,.089-.068h0l9.638-5.509a.808.808,0,0,1,.8,0l9.637,5.509h0a1.059,1.059,0,0,1,.09.068c.025.02.055.038.078.06a.788.788,0,0,1,.071.093.748.748,0,0,1,.055.071.793.793,0,0,1,.052.124.558.558,0,0,1,.028.067ZM48.186,22.184V13.1l-3.373,1.928-4.658,2.663v9.084l8.03-4.591ZM38.549,38.617v-9.09l-4.584,2.6L20.88,39.54v9.175l17.669-10.1ZM1.606,7.685V38.617l17.668,10.1V39.543l-9.23-5.186,0,0h0a.784.784,0,0,1-.086-.066.911.911,0,0,1-.077-.058l0,0a.762.762,0,0,1-.066-.084.725.725,0,0,1-.06-.077v0a.638.638,0,0,1-.042-.1.541.541,0,0,1-.038-.089h0a.767.767,0,0,1-.017-.117.885.885,0,0,1-.012-.09V12.275L4.98,9.613ZM10.44,1.717,2.413,6.307,10.44,10.9l8.028-4.589L10.44,1.717Zm4.176,28.638,4.658-2.662V7.685L15.9,9.613l-4.659,2.663V32.283l3.373-1.928ZM39.352,7.133l-8.028,4.588,8.028,4.589,8.027-4.589L39.352,7.133Zm-.8,10.558L33.89,15.028,30.518,13.1v9.084l4.658,2.663,3.373,1.928V17.69ZM20.076,38.161l11.775-6.674,5.886-3.336-8.022-4.586-9.237,5.28L12.06,33.657Z" transform="translate(1252.958 1553.553)"/>
  </g>
</svg>
