<svg xmlns="http://www.w3.org/2000/svg" width="26.322" height="26.29" viewBox="0 0 26.322 26.29">
  <path id="Path_2" data-name="Path 2" d="M41.109,39.1l-6.455-6.455a10.8,10.8,0,1,0-8.619,4.292,10.637,10.637,0,0,0,6.527-2.2l6.491,6.419a1.444,1.444,0,0,0,1.046.433,1.506,1.506,0,0,0,1.046-.433A1.47,1.47,0,0,0,41.109,39.1ZM26.071,34.017a7.9,7.9,0,1,1,5.59-13.488,7.707,7.707,0,0,1,2.308,5.59,7.916,7.916,0,0,1-2.308,5.59A7.767,7.767,0,0,1,26.071,34.017Z" transform="translate(-15.225 -15.3)"/>
</svg>
